<svg width="118" height="118" viewBox="0 0 118 118" fill="none" xmlns="http://www.w3.org/2000/svg">
<path d="M111.411 64.0909C111.587 64.1058 111.745 64.0918 111.886 64.049C112.026 64.01 112.159 63.9292 112.283 63.8066C112.407 63.684 112.532 63.5066 112.658 63.2744C112.787 63.0465 112.924 62.7526 113.069 62.3928C113.228 61.999 113.398 61.6375 113.579 61.3082C113.764 60.9831 113.968 60.7028 114.192 60.4673C114.42 60.232 114.673 60.0557 114.95 59.9382C115.23 59.821 115.546 59.7773 115.897 59.8071C116.244 59.8365 116.553 59.9353 116.825 60.1033C117.097 60.2752 117.325 60.504 117.508 60.7899C117.696 61.0799 117.83 61.4144 117.911 61.7934C117.997 62.1727 118.02 62.586 117.982 63.0332C117.929 63.6631 117.766 64.1956 117.493 64.6307C117.22 65.0697 116.877 65.395 116.462 65.6065C116.047 65.822 115.602 65.9095 115.127 65.8692L115.251 64.4169C115.531 64.4407 115.784 64.4014 116.008 64.299C116.237 64.2009 116.423 64.0366 116.568 63.8061C116.713 63.5795 116.801 63.2834 116.833 62.9179C116.862 62.5719 116.834 62.2797 116.748 62.0413C116.663 61.803 116.535 61.6198 116.365 61.4918C116.196 61.3638 115.998 61.2903 115.772 61.2711C115.612 61.2575 115.463 61.2821 115.324 61.3447C115.189 61.4077 115.059 61.5102 114.933 61.6522C114.811 61.7946 114.692 61.9764 114.575 62.1975C114.458 62.4187 114.341 62.681 114.225 62.9845C114.045 63.443 113.854 63.84 113.653 64.1754C113.455 64.5112 113.24 64.7866 113.005 65.0017C112.771 65.2168 112.513 65.3711 112.23 65.4647C111.951 65.5585 111.641 65.5908 111.298 65.5617C110.939 65.5313 110.622 65.4319 110.346 65.2636C110.074 65.0956 109.848 64.8688 109.668 64.5833C109.492 64.302 109.365 63.9701 109.288 63.5876C109.214 63.2093 109.197 62.7926 109.236 62.3377C109.27 61.9294 109.359 61.5316 109.502 61.1442C109.645 60.7607 109.841 60.4171 110.09 60.1132C110.344 59.8096 110.646 59.5768 110.997 59.4147C111.353 59.253 111.756 59.1913 112.208 59.2296L112.083 60.6936C111.807 60.6701 111.567 60.6968 111.364 60.7736C111.161 60.8542 110.99 60.9748 110.851 61.1353C110.715 61.2962 110.609 61.4869 110.531 61.7074C110.453 61.9319 110.403 62.1744 110.381 62.4349C110.352 62.7771 110.376 63.067 110.454 63.3047C110.532 63.5463 110.653 63.7328 110.818 63.8644C110.984 63.9959 111.181 64.0714 111.411 64.0909Z" fill="black"/>
<path d="M112.027 75.1936L110.904 74.8762L112.14 70.5225L113.263 70.84L112.027 75.1936ZM116.595 72.1591L108.378 69.8364L108.779 68.4228L116.996 70.7454L116.595 72.1591ZM115.15 77.2505L106.933 74.9278L107.333 73.5198L115.549 75.8425L115.15 77.2505Z" fill="black"/>
<path d="M106.772 86.2364L106.356 86.0209C105.783 85.7245 105.308 85.3842 104.931 85C104.553 84.6158 104.277 84.2024 104.101 83.76C103.924 83.3211 103.85 82.8654 103.88 82.3928C103.913 81.922 104.051 81.4528 104.294 80.985C104.535 80.5208 104.839 80.1395 105.205 79.8411C105.573 79.548 105.99 79.3437 106.455 79.2283C106.92 79.1129 107.421 79.0948 107.956 79.1742C108.49 79.257 109.044 79.4466 109.616 79.7429L110.033 79.9584C110.606 80.2547 111.078 80.5959 111.45 80.9818C111.826 81.3695 112.102 81.7845 112.277 82.2269C112.454 82.6746 112.527 83.1321 112.496 83.5994C112.466 84.072 112.331 84.5404 112.089 85.0046C111.847 85.4724 111.54 85.8545 111.17 86.1511C110.804 86.4495 110.387 86.6537 109.921 86.7639C109.457 86.8758 108.959 86.8887 108.427 86.8024C107.897 86.7214 107.345 86.5327 106.772 86.2364ZM107.033 84.7164L107.46 84.9373C107.884 85.1564 108.279 85.3079 108.645 85.3918C109.012 85.4809 109.347 85.5023 109.648 85.4561C109.952 85.4151 110.218 85.309 110.448 85.1378C110.681 84.9684 110.873 84.74 111.022 84.4524C111.171 84.1648 111.247 83.8788 111.25 83.5943C111.256 83.3117 111.189 83.0332 111.049 82.7589C110.912 82.4898 110.701 82.2293 110.418 81.9773C110.138 81.7272 109.787 81.4925 109.363 81.2734L108.936 81.0526C108.513 80.8335 108.116 80.6811 107.747 80.5954C107.377 80.5097 107.038 80.4882 106.73 80.5309C106.423 80.5788 106.154 80.6857 105.922 80.8516C105.694 81.0194 105.506 81.247 105.356 81.5346C105.205 81.8256 105.127 82.1125 105.121 82.3951C105.118 82.6796 105.188 82.9573 105.329 83.2281C105.474 83.5007 105.688 83.7613 105.973 84.0098C106.256 84.2618 106.61 84.4973 107.033 84.7164Z" fill="black"/>
<path d="M101.398 89.8955L105.377 95.444L104.804 96.1256L103.561 94.9544L99.4952 89.1807L100.091 88.4722L101.398 89.8955ZM107.289 93.1706L101.371 90.0101L99.7818 88.8399L100.415 88.0866L108.228 92.054L107.289 93.1706ZM98.5451 93.3979L102.689 98.6412L101.747 99.7622L96.4753 92.7725L97.1087 92.0192L98.5451 93.3979ZM104.582 96.3902L98.4136 93.4177L96.7996 92.3868L97.3952 91.6784L103.779 94.6943L105.147 95.7175L104.582 96.3902Z" fill="black"/>
<path d="M89.6951 107.973L88.0706 100.329L89.3929 99.5363L91.0352 108.494L90.1905 109.001L89.6951 107.973ZM84.0533 102.737L90.0571 107.756L90.7385 108.672L89.8888 109.181L82.726 103.533L84.0533 102.737ZM85.7899 105.384L85.1888 104.385L89.1709 101.998L89.7719 102.996L85.7899 105.384Z" fill="black"/>
<path d="M75.3027 107.952L74.8886 106.863L78.8971 105.345L79.3113 106.434L75.3027 107.952ZM81.5433 113.459L78.5133 105.49L79.8897 104.969L82.9197 112.937L81.5433 113.459Z" fill="black"/>
<path d="M67.5077 109.871L67.2715 108.73L71.4703 107.865L71.7065 109.005L67.5077 109.871ZM72.7962 116.294L71.0682 107.948L72.5099 107.65L74.2379 115.997L72.7962 116.294Z" fill="black"/>
<path d="M55.5453 112.433L57.7623 112.595L57.6768 113.757L55.4598 113.595C55.0738 113.566 54.7572 113.606 54.5102 113.713C54.2631 113.82 54.077 113.979 53.9518 114.188C53.8223 114.402 53.7472 114.651 53.7263 114.935C53.7065 115.204 53.7446 115.459 53.8405 115.701C53.9322 115.946 54.0918 116.149 54.319 116.311C54.5463 116.472 54.853 116.567 55.2391 116.595L57.0056 116.725L57.5451 109.392L59.0133 109.5L58.3879 118L55.1532 117.763C54.4941 117.715 53.9431 117.557 53.5001 117.29C53.053 117.026 52.7235 116.681 52.5118 116.255C52.2998 115.832 52.213 115.36 52.2514 114.839C52.2917 114.29 52.4473 113.828 52.718 113.452C52.9887 113.077 53.3638 112.801 53.8433 112.625C54.3189 112.449 54.8863 112.385 55.5453 112.433Z" fill="black"/>
<path d="M44.9539 115.046L49.3525 108.582L50.8414 108.985L45.5055 116.372L44.5544 116.115L44.9539 115.046ZM44.8293 107.359L45.3615 115.156L45.1715 116.281L44.2147 116.023L43.3348 106.954L44.8293 107.359ZM44.1198 110.442L44.4251 109.317L48.9087 110.53L48.6034 111.654L44.1198 110.442Z" fill="black"/>
<path d="M36.6385 113.635L33.9216 112.318C33.3378 112.035 32.8828 111.705 32.5568 111.33C32.2307 110.955 32.0424 110.543 31.9918 110.093C31.936 109.645 32.0303 109.17 32.2746 108.669C32.4609 108.286 32.6953 107.983 32.9778 107.76C33.2603 107.537 33.5786 107.387 33.9328 107.312C34.2852 107.24 34.6655 107.235 35.0737 107.299L35.5695 107.299L38.012 108.483L37.5125 109.536L35.6819 108.648C35.3654 108.495 35.0743 108.423 34.8086 108.433C34.5429 108.443 34.3103 108.519 34.1108 108.661C33.906 108.804 33.7439 108.999 33.6243 109.245C33.4944 109.512 33.4344 109.769 33.4442 110.017C33.4488 110.266 33.5327 110.496 33.696 110.705C33.8576 110.918 34.1036 111.104 34.4342 111.265L35.827 111.94L39.0463 105.327L40.3705 105.969L36.6385 113.635ZM35.9865 103.843L36.1144 108.162L34.7244 107.494L34.5393 103.226L34.5727 103.158L35.9865 103.843Z" fill="black"/>
<path d="M24.4625 106.745L29.5112 99.8706L30.6891 100.732L25.6404 107.606L24.4625 106.745ZM22.3007 105.163L22.9942 104.219L28.4768 108.23L27.7833 109.174L22.3007 105.163Z" fill="black"/>
<path d="M14.3243 97.5281L20.557 91.7017L21.5634 92.7741L19.7169 99.7376L24.1817 95.5639L25.1881 96.6362L18.9553 102.463L17.9489 101.39L19.796 94.4102L15.3227 98.5919L14.3243 97.5281Z" fill="black"/>
<path d="M14.4062 85.0264L15.3933 84.4046L17.8131 88.2312L16.826 88.8529L14.4062 85.0264ZM10.369 92.4285L17.5908 87.8797L18.3766 89.1222L11.1548 93.671L10.369 92.4285ZM11.5034 87.5539L12.4755 86.9416L14.5791 90.2681L13.607 90.8805L11.5034 87.5539ZM8.18714 88.9782L9.17915 88.3534L11.5833 92.1552L10.5913 92.78L8.18714 88.9782Z" fill="black"/>
<path d="M5.77399 84.7163L4.63903 81.9226C4.39515 81.3222 4.27785 80.7738 4.28713 80.2774C4.29642 79.7809 4.43307 79.3488 4.6971 78.9808C4.95604 78.6108 5.34459 78.3209 5.86278 78.1112C6.25776 77.9514 6.63501 77.883 6.99454 77.9059C7.35407 77.9289 7.69074 78.0306 8.00454 78.211C8.31472 78.3929 8.60017 78.6437 8.86089 78.9635L9.22949 79.2944L10.2499 81.8061L9.1726 82.2546L8.40788 80.3722C8.27565 80.0468 8.10748 79.799 7.90337 79.6289C7.69926 79.4588 7.47552 79.3599 7.23214 79.332C6.98367 79.302 6.73261 79.3384 6.47896 79.441C6.20356 79.5524 5.98643 79.7035 5.82759 79.8941C5.66364 80.0825 5.57213 80.3091 5.55304 80.5737C5.53033 80.8397 5.58803 81.1427 5.72613 81.4827L6.30794 82.9148L13.1349 80.1523L13.6881 81.5139L5.77399 84.7163ZM11.8567 77.0059L9.05559 80.2996L8.47055 78.8751L11.1954 75.5807L11.2661 75.5521L11.8567 77.0059Z" fill="black"/>
<path d="M7.32817 69.1557C7.15585 69.1912 7.00822 69.2496 6.88527 69.3307C6.76153 69.408 6.65758 69.5231 6.57344 69.6759C6.48929 69.8288 6.42004 70.0343 6.36571 70.2926C6.30675 70.5478 6.25933 70.8684 6.22345 71.2544C6.18319 71.6771 6.12321 72.072 6.04349 72.4391C5.95916 72.8032 5.84314 73.13 5.69545 73.4195C5.54392 73.7097 5.35221 73.9505 5.1203 74.1418C4.88456 74.3338 4.59438 74.4654 4.24974 74.5365C3.90893 74.6068 3.58412 74.6 3.27531 74.5163C2.96571 74.4287 2.68213 74.274 2.42459 74.0521C2.16242 73.8272 1.93823 73.5447 1.75202 73.2046C1.56198 72.8652 1.42146 72.4757 1.33047 72.0362C1.2023 71.4171 1.2068 70.8603 1.34399 70.3658C1.48039 69.8674 1.71704 69.458 2.05395 69.1375C2.39007 68.8131 2.79172 68.6028 3.25889 68.5065L3.55441 69.9339C3.2787 69.9907 3.0478 70.1001 2.86172 70.262C2.67101 70.4209 2.53892 70.6314 2.46544 70.8937C2.39116 71.152 2.39121 71.4609 2.46559 71.8201C2.536 72.1602 2.64625 72.4324 2.79632 72.6365C2.94639 72.8407 3.12097 72.98 3.32007 73.0545C3.51916 73.1291 3.72975 73.1434 3.95185 73.0976C4.10885 73.0652 4.24493 72.9993 4.3601 72.8999C4.47143 72.8012 4.56719 72.6659 4.64739 72.4939C4.72375 72.3228 4.78646 72.1146 4.83551 71.8694C4.88456 71.6241 4.92147 71.3396 4.94625 71.0157C4.98837 70.5248 5.05807 70.09 5.15535 69.7113C5.2488 69.3334 5.37709 69.0081 5.54023 68.7354C5.70337 68.4627 5.9071 68.2413 6.15141 68.0714C6.3919 67.9023 6.68063 67.7829 7.0176 67.7135C7.3699 67.6408 7.70237 67.646 8.01501 67.7289C8.32382 67.8127 8.60508 67.9659 8.8588 68.1885C9.10789 68.4081 9.32403 68.6903 9.50721 69.0351C9.68576 69.3768 9.82132 69.7713 9.91389 70.2184C9.99697 70.6197 10.0252 71.0263 9.99873 71.4382C9.97142 71.8463 9.88147 72.2315 9.72887 72.5937C9.57244 72.9567 9.34895 73.2658 9.0584 73.521C8.76402 73.7769 8.39474 73.9507 7.95054 74.0423L7.65265 72.6034C7.92453 72.5474 8.14671 72.4537 8.31918 72.3225C8.49087 72.1875 8.62057 72.0233 8.7083 71.8299C8.79219 71.6372 8.83991 71.4242 8.85146 71.1907C8.86222 70.9533 8.84109 70.7066 8.78808 70.4506C8.71846 70.1143 8.61244 69.8433 8.47003 69.6375C8.32682 69.4279 8.15719 69.2836 7.96114 69.2045C7.76508 69.1254 7.55409 69.1091 7.32817 69.1557Z" fill="black"/>
<path d="M6.58874 53.9531C6.41342 53.9382 6.25526 53.9522 6.11425 53.9951C5.97358 54.034 5.84112 54.1148 5.71686 54.2374C5.59261 54.3601 5.46761 54.5374 5.34187 54.7696C5.21257 54.9975 5.07568 55.2914 4.93121 55.6512C4.77208 56.045 4.60195 56.4066 4.42084 56.7358C4.23617 57.0609 4.03176 57.3412 3.80763 57.5768C3.57959 57.812 3.32714 57.9883 3.05028 58.1058C2.76952 58.223 2.45381 58.2667 2.10317 58.2369C1.75641 58.2075 1.44696 58.1088 1.1748 57.9407C0.902981 57.7688 0.675255 57.54 0.491627 57.2541C0.304433 56.9641 0.170084 56.6296 0.0885778 56.2506C0.00317563 55.8713 -0.0204713 55.458 0.0176372 55.0109C0.0713204 54.3809 0.234431 53.8484 0.506968 53.4133C0.779837 52.9743 1.12346 52.6491 1.53785 52.4375C1.95256 52.222 2.39758 52.1345 2.8729 52.1748L2.74913 53.6272C2.46862 53.6033 2.21608 53.6426 1.99152 53.745C1.7634 53.8431 1.57672 54.0074 1.4315 54.2379C1.28661 54.4645 1.19859 54.7606 1.16744 55.1261C1.13795 55.4722 1.16603 55.7644 1.25167 56.0027C1.33731 56.2411 1.46494 56.4242 1.63455 56.5522C1.80416 56.6802 2.00196 56.7537 2.22793 56.7729C2.38767 56.7865 2.53692 56.762 2.67568 56.6993C2.81055 56.6363 2.94094 56.5338 3.06685 56.3918C3.18887 56.2494 3.30835 56.0676 3.4253 55.8465C3.54226 55.6253 3.6588 55.363 3.77492 55.0596C3.95527 54.601 4.14608 54.204 4.34733 53.8686C4.54469 53.5328 4.76045 53.2574 4.99462 53.0423C5.22879 52.8272 5.4872 52.6729 5.76987 52.5794C6.04864 52.4855 6.35946 52.4532 6.70232 52.4823C7.06076 52.5127 7.378 52.6121 7.65405 52.7804C7.92621 52.9484 8.15215 53.1752 8.33188 53.4607C8.50805 53.742 8.63477 54.0739 8.71205 54.4564C8.78577 54.8348 8.80324 55.2514 8.76447 55.7063C8.72967 56.1146 8.64083 56.5124 8.49794 56.8998C8.35538 57.2833 8.15931 57.6269 7.90972 57.9308C7.65625 58.2344 7.35386 58.4672 7.00255 58.6293C6.64736 58.7911 6.24378 58.8528 5.79183 58.8144L5.9166 57.3504C6.19322 57.3739 6.43291 57.3472 6.63567 57.2705C6.83876 57.1898 7.00993 57.0692 7.14919 56.9087C7.28455 56.7478 7.39106 56.5571 7.46872 56.3366C7.54671 56.1121 7.59681 55.8696 7.61901 55.6091C7.64817 55.2669 7.62383 54.977 7.54598 54.7393C7.46846 54.4977 7.34701 54.3112 7.18162 54.1797C7.01624 54.0481 6.81861 53.9726 6.58874 53.9531Z" fill="black"/>
<path d="M5.96822 42.8504L7.09123 43.1679L5.85567 47.5215L4.73266 47.204L5.96822 42.8504ZM1.40066 45.8849L9.61724 48.2076L9.21604 49.6213L0.999464 47.2986L1.40066 45.8849ZM2.84561 40.7935L11.0622 43.1162L10.6626 44.5242L2.44601 42.2015L2.84561 40.7935Z" fill="black"/>
<path d="M11.0896 32.0373L11.5069 32.2513C12.0808 32.5455 12.5572 32.884 12.936 33.2668C13.3148 33.6497 13.5928 34.062 13.7698 34.5037C13.9487 34.942 14.0242 35.3975 13.9963 35.8702C13.9649 36.3411 13.8286 36.8108 13.5875 37.2794C13.3481 37.7446 13.0457 38.127 12.6805 38.4268C12.3135 38.7212 11.8977 38.927 11.433 39.0442C10.9683 39.1613 10.4679 39.1812 9.93186 39.1038C9.39762 39.023 8.84354 38.8354 8.26965 38.5412L7.85227 38.3273C7.27838 38.0331 6.80465 37.6937 6.43111 37.3092C6.05408 36.9228 5.77703 36.5088 5.59997 36.0671C5.42122 35.6201 5.34663 35.1629 5.3762 34.6954C5.40408 34.2227 5.53772 33.7538 5.77713 33.2887C6.01832 32.8201 6.32328 32.4368 6.69202 32.1388C7.05729 31.8391 7.47311 31.6333 7.93951 31.5214C8.40243 31.4078 8.90012 31.3931 9.43258 31.4774C9.96335 31.5565 10.5157 31.7431 11.0896 32.0373ZM10.8343 33.5582L10.4065 33.3389C9.98215 33.1214 9.58681 32.9713 9.22047 32.8888C8.85243 32.8011 8.51776 32.7808 8.21645 32.8282C7.91345 32.8703 7.64734 32.9774 7.41813 33.1494C7.18544 33.3197 6.99495 33.5489 6.84666 33.837C6.69837 34.1251 6.62355 34.4114 6.6222 34.6959C6.61738 34.9785 6.68517 35.2568 6.82559 35.5306C6.96432 35.7991 7.17571 36.0588 7.45978 36.3098C7.74037 36.5589 8.09283 36.7922 8.51717 37.0098L8.94498 37.2291C9.36931 37.4466 9.76639 37.5975 10.1362 37.6818C10.506 37.7661 10.8451 37.7864 11.1533 37.7426C11.4599 37.6936 11.7287 37.5857 11.9596 37.4189C12.187 37.2503 12.3749 37.0219 12.5231 36.7338C12.6732 36.4422 12.7507 36.1551 12.7555 35.8724C12.7568 35.5879 12.6864 35.3105 12.5442 35.0402C12.3985 34.7681 12.1828 34.5083 11.8969 34.2609C11.6128 34.01 11.2586 33.7757 10.8343 33.5582Z" fill="black"/>
<path d="M16.5211 28.2241L12.5419 22.6755L13.115 21.9939L14.3583 23.1651L18.4239 28.9388L17.8282 29.6473L16.5211 28.2241ZM10.6304 24.949L16.5485 28.1095L18.1373 29.2796L17.504 30.0329L9.69163 26.0655L10.6304 24.949ZM19.374 24.7217L15.2301 19.4784L16.1726 18.3573L21.4438 25.347L20.8104 26.1004L19.374 24.7217ZM13.3374 21.7294L19.5055 24.7019L21.1196 25.7327L20.5239 26.4412L14.1397 23.4252L12.7719 22.402L13.3374 21.7294Z" fill="black"/>
<path d="M28.1476 10.1433L29.7721 17.7872L28.4498 18.5799L26.8075 9.62202L27.6522 9.11561L28.1476 10.1433ZM33.7894 15.3787L27.7856 10.3604L27.1042 9.44417L27.9539 8.93475L35.1167 14.5829L33.7894 15.3787ZM32.0528 12.7324L32.6539 13.7309L28.6718 16.1182L28.0708 15.1197L32.0528 12.7324Z" fill="black"/>
<path d="M42.4833 10.1503L42.8975 11.2394L38.8889 12.7577L38.4748 11.6686L42.4833 10.1503ZM36.2427 4.64389L39.2728 12.6123L37.8964 13.1336L34.8663 5.16521L36.2427 4.64389Z" fill="black"/>
<path d="M50.1 8.22407L50.3405 9.36394L46.1451 10.2458L45.9045 9.10589L50.1 8.22407ZM44.7869 1.82134L46.5468 10.1613L45.1062 10.4641L43.3464 2.12413L44.7869 1.82134Z" fill="black"/>
<path d="M62.175 5.56709L59.958 5.40463L60.0435 4.24288L62.2604 4.40534C62.6465 4.43363 62.9631 4.39422 63.2101 4.28711C63.4571 4.18 63.6433 4.02147 63.7685 3.81152C63.8979 3.59797 63.9731 3.34913 63.994 3.06502C64.0137 2.79647 63.9757 2.5413 63.8797 2.29949C63.788 2.05408 63.6285 1.85066 63.4012 1.68922C63.1739 1.52779 62.8673 1.43293 62.4812 1.40463L60.7146 1.27518L60.1752 8.60764L58.707 8.50005L59.3323 0L62.5671 0.237045C63.2261 0.285339 63.7772 0.443106 64.2201 0.710344C64.6673 0.973977 64.9967 1.31898 65.2085 1.74535C65.4205 2.16784 65.5073 2.63984 65.4689 3.16136C65.4285 3.71013 65.273 4.1722 65.0023 4.54757C64.7316 4.92294 64.3565 5.1987 63.877 5.37486C63.4013 5.55131 62.834 5.61539 62.175 5.56709Z" fill="black"/>
<path d="M72.9896 2.95924L68.591 9.42337L67.1021 9.0207L72.4381 1.6335L73.3891 1.89073L72.9896 2.95924ZM73.1142 10.6467L72.582 2.84901L72.7721 1.72384L73.7288 1.98259L74.6087 11.0509L73.1142 10.6467ZM73.8237 7.56362L73.5184 8.68795L69.0349 7.47533L69.3401 6.351L73.8237 7.56362Z" fill="black"/>
<path d="M81.0907 4.25315L83.8076 5.57057C84.3914 5.85367 84.8464 6.18273 85.1724 6.55777C85.4985 6.93281 85.6868 7.34519 85.7374 7.79491C85.7932 8.24283 85.6989 8.71776 85.4546 9.2197C85.2683 9.6023 85.034 9.90516 84.7514 10.1283C84.4689 10.3514 84.1506 10.5007 83.7965 10.5763C83.444 10.6484 83.0637 10.6527 82.6555 10.5893L82.1597 10.5897L79.7172 9.40527L80.2167 8.3524L82.0473 9.24006C82.3638 9.39355 82.655 9.46529 82.9207 9.45529C83.1864 9.44529 83.419 9.36935 83.6184 9.22746C83.8232 9.08376 83.9853 8.88906 84.1049 8.64335C84.2348 8.37659 84.2948 8.11934 84.285 7.87161C84.2804 7.62208 84.1965 7.39265 84.0332 7.18332C83.8717 6.97048 83.6256 6.7839 83.295 6.62359L81.9022 5.94826L78.6829 12.5612L77.3587 11.9192L81.0907 4.25315ZM81.7427 14.0449L81.6148 9.72669L83.0048 10.3942L83.1899 14.6621L83.1565 14.7305L81.7427 14.0449Z" fill="black"/>
<path d="M93.4919 11.2417L88.4431 18.1157L87.2653 17.254L92.314 10.38L93.4919 11.2417ZM95.6537 12.8233L94.9602 13.7675L89.4776 9.75655L90.1711 8.81233L95.6537 12.8233Z" fill="black"/>
<path d="M103.527 20.3314L97.2938 26.1578L96.2874 25.0854L98.134 18.122L93.6692 22.2956L92.6628 21.2233L98.8956 15.3969L99.902 16.4693L98.0548 23.4493L102.528 19.2676L103.527 20.3314Z" fill="black"/>
<path d="M103.552 32.9254L102.565 33.5471L100.145 29.7205L101.132 29.0988L103.552 32.9254ZM107.589 25.5232L100.367 30.072L99.5816 28.8295L106.803 24.2807L107.589 25.5232ZM106.455 30.3978L105.483 31.0101L103.379 27.6836L104.351 27.0712L106.455 30.3978ZM109.771 28.9735L108.779 29.5983L106.375 25.7965L107.367 25.1717L109.771 28.9735Z" fill="black"/>
<path d="M112.198 33.2307L113.333 36.0245C113.577 36.6248 113.694 37.1732 113.685 37.6696C113.676 38.1661 113.539 38.5983 113.275 38.9662C113.016 39.3363 112.627 39.6261 112.109 39.8358C111.714 39.9956 111.337 40.0641 110.977 40.0411C110.618 40.0182 110.281 39.9165 109.967 39.736C109.657 39.5542 109.372 39.3033 109.111 38.9835L108.742 38.6526L107.722 36.1409L108.799 35.6924L109.564 37.5748C109.696 37.9003 109.864 38.148 110.069 38.3181C110.273 38.4882 110.496 38.5871 110.74 38.615C110.988 38.645 111.239 38.6087 111.493 38.506C111.768 38.3946 111.986 38.2436 112.144 38.053C112.308 37.8645 112.4 37.638 112.419 37.3734C112.442 37.1073 112.384 36.8043 112.246 36.4644L111.664 35.0322L104.837 37.7947L104.284 36.4331L112.198 33.2307ZM106.115 40.9411L108.916 37.6474L109.501 39.0719L106.777 42.3663L106.706 42.3949L106.115 40.9411Z" fill="black"/>
<path d="M110.628 48.6365C110.8 48.6003 110.948 48.5414 111.07 48.4598C111.194 48.382 111.297 48.2665 111.381 48.1134C111.464 47.9602 111.533 47.7544 111.586 47.4959C111.644 47.2405 111.69 46.9197 111.725 46.5336C111.763 46.1107 111.822 45.7156 111.9 45.3482C111.983 44.9838 112.098 44.6566 112.245 44.3665C112.395 44.0757 112.586 43.8342 112.817 43.642C113.052 43.4491 113.342 43.3164 113.686 43.244C114.026 43.1725 114.351 43.178 114.66 43.2605C114.97 43.3469 115.255 43.5006 115.513 43.7214C115.776 43.9453 116.001 44.227 116.189 44.5664C116.38 44.9051 116.522 45.294 116.615 45.7331C116.745 46.3517 116.743 46.9086 116.608 47.4036C116.473 47.9025 116.238 48.3128 115.902 48.6346C115.567 48.9602 115.167 49.1721 114.7 49.2702L114.399 47.8439C114.674 47.786 114.905 47.6758 115.09 47.5132C115.28 47.3536 115.412 47.1425 115.484 46.88C115.557 46.6214 115.556 46.3125 115.48 45.9536C115.409 45.6137 115.297 45.342 115.147 45.1384C114.996 44.9348 114.821 44.7962 114.621 44.7224C114.422 44.6487 114.211 44.6351 113.989 44.6818C113.832 44.7147 113.697 44.7812 113.582 44.8811C113.471 44.9802 113.376 45.1158 113.296 45.2881C113.22 45.4595 113.159 45.668 113.11 45.9134C113.062 46.1588 113.026 46.4435 113.003 46.7675C112.963 47.2585 112.895 47.6935 112.799 48.0726C112.707 48.4508 112.58 48.7766 112.418 49.05C112.256 49.3234 112.053 49.5455 111.809 49.7163C111.569 49.8864 111.281 50.0068 110.944 50.0775C110.592 50.1515 110.26 50.1476 109.947 50.0659C109.638 49.9833 109.356 49.8312 109.101 49.6095C108.851 49.3908 108.634 49.1095 108.45 48.7654C108.27 48.4243 108.133 48.0304 108.038 47.5836C107.954 47.1827 107.924 46.7762 107.949 46.3641C107.975 45.9559 108.063 45.5704 108.214 45.2076C108.369 44.8441 108.592 44.5341 108.881 44.2778C109.175 44.0208 109.543 43.8456 109.987 43.7523L110.29 45.19C110.019 45.2471 109.797 45.3416 109.625 45.4735C109.454 45.6091 109.325 45.7738 109.238 45.9676C109.155 46.1606 109.108 46.3738 109.097 46.6074C109.087 46.8447 109.109 47.0913 109.163 47.3472C109.234 47.6832 109.341 47.9538 109.484 48.159C109.628 48.3681 109.799 48.5117 109.995 48.5901C110.191 48.6685 110.402 48.6839 110.628 48.6365Z" fill="black"/>
</svg>
