<svg width="98" height="81" viewBox="0 0 98 81" fill="none" xmlns="http://www.w3.org/2000/svg">
<path d="M12.6872 15.7949V18.6036C12.6872 19.3701 12.9787 20.0684 13.5618 20.6984C14.1478 21.3258 14.8766 21.6381 15.7456 21.6381C14.8766 21.6381 14.1478 21.9531 13.5618 22.5831C12.9787 23.2131 12.6872 23.9114 12.6872 24.6779V34.7106C12.6872 35.4811 12.9787 36.1806 13.5618 36.8106C14.1478 37.438 14.8766 37.7504 15.7456 37.7504H0.859375C1.69401 37.7504 2.40287 37.438 2.98598 36.8106C3.57193 36.1806 3.86634 35.4811 3.86634 34.7106V8.56563C3.86634 7.79913 3.57193 7.10088 2.98598 6.47088C2.40287 5.84088 1.69401 5.52588 0.859375 5.52588H15.7456C14.8766 5.52588 14.1478 5.84088 13.5618 6.47088C12.9787 7.10088 12.6872 7.79913 12.6872 8.56563V15.7949ZM29.0826 34.7106C29.0826 35.4811 29.3741 36.1806 29.9572 36.8106C30.5403 37.438 31.2663 37.7504 32.1353 37.7504H17.2491C18.0865 37.7504 18.7983 37.438 19.3814 36.8106C19.9645 36.1806 20.256 35.4811 20.256 34.7106V24.6779C20.256 23.9114 19.9645 23.2131 19.3814 22.5831C18.7983 21.9531 18.0865 21.6381 17.2491 21.6381C18.0865 21.6381 18.7983 21.3258 19.3814 20.6984C19.9645 20.0684 20.256 19.3701 20.256 18.6036V8.56563C20.256 7.79913 19.9645 7.10088 19.3814 6.47088C18.7983 5.84088 18.0865 5.52588 17.2491 5.52588H32.1353C31.2663 5.52588 30.5403 5.84088 29.9572 6.47088C29.3741 7.10088 29.0826 7.79913 29.0826 8.56563V34.7106Z" fill="white"/>
<path d="M40.7004 35.2199C40.7004 35.7738 40.9005 36.3106 41.3007 36.8316C41.7008 37.354 42.1839 37.6598 42.7527 37.7504H31.125C31.6924 37.6598 32.1769 37.354 32.577 36.8316C32.9801 36.3106 33.183 35.7738 33.183 35.2199V18.8294C33.183 18.2493 32.9801 17.7046 32.577 17.1966C32.1769 16.69 31.6924 16.3908 31.125 16.2989L39.7 15.1491H39.8486C40.416 15.1491 40.7004 15.4103 40.7004 15.9314V35.2199ZM36.9389 12.6606C35.8713 12.6606 34.9609 12.3168 34.2063 11.6264C33.4545 10.9373 33.0801 10.1013 33.0801 9.11688C33.0801 8.13775 33.4545 7.29382 34.2063 6.58638C34.9609 5.88025 35.8713 5.52588 36.9389 5.52588C38.0093 5.52588 38.9283 5.88025 39.6943 6.58638C40.4632 7.29382 40.8491 8.13775 40.8491 9.11688C40.8491 9.61038 40.7476 10.0724 40.5461 10.5029C40.3474 10.9308 40.073 11.3048 39.7229 11.6264C39.3713 11.9493 38.954 12.2026 38.4709 12.3876C37.9864 12.5701 37.4762 12.6606 36.9389 12.6606Z" fill="white"/>
<path d="M62.3529 32.7786C63.2861 32.9926 64.1536 33.3456 64.9539 33.8391C65.7571 34.33 66.4517 34.9285 67.0348 35.6346C67.6208 36.3381 68.081 37.1283 68.4125 38.0024C68.747 38.8765 68.9156 39.79 68.9156 40.7429C68.9156 39.9134 68.7398 39.1443 68.3897 38.4381C68.0381 37.7346 67.5622 37.1151 66.9605 36.5796C66.3617 36.0415 65.6771 35.6189 64.9082 35.3144C64.1379 35.0073 63.3361 34.8524 62.5015 34.8524C61.4982 34.8524 60.595 35.0598 59.7918 35.4719C58.9915 35.8853 58.2311 36.3998 57.5108 37.0154C56.7934 37.6283 56.0931 38.2938 55.4071 39.0156C54.724 39.7362 54.0151 40.4029 53.2805 41.0159C52.5445 41.6314 51.7599 42.1459 50.9253 42.5594C50.0906 42.9754 49.1717 43.1841 48.1698 43.1841C47.2666 43.1841 46.4291 43.0214 45.6602 42.6959C44.8899 42.373 44.2139 41.9294 43.6308 41.3624C43.0477 40.7954 42.5875 40.1352 42.2531 39.3831C41.9172 38.6298 41.75 37.8252 41.75 36.9681C41.75 35.5861 42.1673 34.3589 43.002 33.2879C43.8394 32.2143 44.9113 31.4766 46.2147 31.0776C45.7459 31.3231 45.3772 31.7155 45.1114 32.2536C44.8441 32.7891 44.7112 33.3181 44.7112 33.8391C44.7112 34.666 45.0342 35.3774 45.6831 35.9759C46.3348 36.5744 47.1122 36.8736 48.0155 36.8736C48.953 36.8736 49.8962 36.6676 50.8452 36.2541C51.797 35.842 52.7774 35.3748 53.7836 34.8524C52.3773 34.6673 51.071 34.2841 49.8677 33.7026C48.6672 33.1186 47.6224 32.3823 46.7349 31.4924C45.8503 30.5999 45.1571 29.5866 44.6541 28.4526C44.1539 27.316 43.9052 26.1033 43.9052 24.8144C43.9052 23.4638 44.1882 22.1894 44.757 20.9924C45.3243 19.7954 46.0918 18.7375 47.0608 17.8161C48.0326 16.8961 49.1774 16.1611 50.4965 15.6111C51.8185 15.0586 53.2305 14.7501 54.7325 14.6871C53.665 14.9326 52.8546 15.9235 52.303 17.6586C51.7499 19.3911 51.474 21.7773 51.474 24.8144C51.474 27.5168 51.6984 29.7048 52.1486 31.3769C52.6017 33.0464 53.2634 34.1436 54.1323 34.6686C54.764 34.33 55.39 34.015 56.0074 33.7236C56.6276 33.4336 57.2722 33.196 57.9396 33.0096C58.3741 32.1486 58.6899 31.0291 58.8886 29.6496C59.0901 28.2676 59.1915 26.6558 59.1915 24.8144C59.1915 21.7773 58.9143 19.3911 58.3626 17.6586C57.8138 15.9235 57.0049 14.9326 55.9388 14.6871C57.4394 14.7501 58.85 15.0586 60.1691 15.6111C61.4911 16.1611 62.6358 16.8961 63.6048 17.8161C64.5724 18.7375 65.3398 19.7954 65.9086 20.9924C66.476 22.1894 66.7604 23.4638 66.7604 24.8144C66.7604 26.4419 66.3674 27.9473 65.5828 29.3294C64.7967 30.7088 63.7206 31.8586 62.3529 32.7786ZM59.7975 46.2186C59.5946 46.4352 59.4102 46.6662 59.243 46.9116C59.0744 47.1558 58.9915 47.4012 58.9915 47.6466C58.9915 48.0141 59.1244 48.3134 59.3916 48.5444C59.6617 48.7754 60.029 48.8909 60.4949 48.8909C59.526 48.8909 58.6084 48.7518 57.7395 48.4761C56.8706 48.1992 56.0931 47.8225 55.4071 47.3474C54.724 46.8709 54.1809 46.3184 53.7779 45.6884C53.3777 45.061 53.1776 44.3943 53.1776 43.6881C53.1776 42.7038 53.5621 41.8585 54.3324 41.1524C55.1013 40.4489 56.0202 40.0971 57.0878 40.0971C57.6209 40.0971 58.1225 40.1877 58.5913 40.3701C59.0601 40.5552 59.4688 40.8085 59.8204 41.1314C60.1705 41.4569 60.4449 41.8414 60.6436 42.2864C60.8451 42.73 60.9466 43.1973 60.9466 43.6881C60.9466 44.6712 60.5635 45.5151 59.7975 46.2186ZM60.5464 15.5166C59.5088 14.8105 58.557 13.9128 57.6881 12.8234C56.8191 11.7353 56.3847 10.5003 56.3847 9.11688C56.3847 8.13775 56.7691 7.29382 57.5394 6.58638C58.3083 5.88025 59.2273 5.52588 60.2949 5.52588C60.8322 5.52588 61.3324 5.61907 61.7983 5.80413C62.2671 5.9905 62.6759 6.24382 63.0274 6.56538C63.3776 6.88825 63.652 7.2715 63.8506 7.71513C64.0521 8.16007 64.1536 8.62732 64.1536 9.11688C64.1536 9.94638 63.9107 10.6223 63.4276 11.1434C62.9431 11.6658 62.3186 12.1094 61.5525 12.4769C60.9837 12.7538 60.565 13.0071 60.2949 13.2381C60.0276 13.4691 59.8947 13.7999 59.8947 14.2304C59.8947 14.6294 60.1119 15.0586 60.5464 15.5166Z" fill="white"/>
<path d="M77.5442 35.2199C77.5442 35.7738 77.7443 36.3106 78.1444 36.8316C78.5446 37.354 79.0276 37.6598 79.5964 37.7504H67.9688C68.5361 37.6598 69.0206 37.354 69.4208 36.8316C69.8238 36.3106 70.0268 35.7738 70.0268 35.2199V9.21138C70.0268 8.65882 69.8238 8.122 69.4208 7.59963C69.0206 7.07857 68.5361 6.77275 67.9688 6.68088L76.5437 5.52588H76.6924C76.9582 5.52588 77.1669 5.60332 77.3155 5.75688C77.467 5.91175 77.5442 6.11125 77.5442 6.35538V35.2199ZM90.7268 35.2199C90.7268 35.7738 90.9269 36.3106 91.327 36.8316C91.7272 37.354 92.2103 37.6598 92.7791 37.7504H81.1514C81.7188 37.6598 82.2032 37.354 82.6034 36.8316C83.0064 36.3106 83.2094 35.7738 83.2094 35.2199V21.6381C83.2094 21.058 83.3423 20.5671 83.6095 20.1681C83.8754 19.7691 84.1755 19.4095 84.5071 19.0866C84.8415 18.7651 85.143 18.4435 85.4103 18.1206C85.6804 17.7951 85.8162 17.4198 85.8162 16.9919C85.8162 16.4708 85.4975 16.018 84.8615 15.6321C84.2241 15.2476 83.4052 15.0546 82.4033 15.0546C81.3357 15.0546 80.3825 15.1793 79.545 15.4274C78.7104 15.6728 78.1273 15.8723 77.7957 16.0259C78.9648 15.5009 80.2939 15.1098 81.7802 14.8499C83.2666 14.5874 84.6757 14.5953 86.0105 14.8709C87.3482 15.1478 88.4687 15.7621 89.372 16.7136C90.2752 17.6665 90.7268 19.0919 90.7268 20.9924V35.2199Z" fill="white"/>
<path d="M19.1872 42.7441V74.6903H7.35938C8.19401 74.6903 8.90287 74.3779 9.48598 73.7506C10.0719 73.1206 10.3663 72.421 10.3663 71.6506V45.5056C10.3663 44.7391 10.0719 44.0408 9.48598 43.4108C8.90287 42.7808 8.19401 42.4658 7.35938 42.4658H19.1872V42.7441ZM19.6902 42.4658H31.8724V51.1703C31.5366 49.9733 30.9764 48.8472 30.1917 47.7893C29.4057 46.7288 28.4782 45.8074 27.4077 45.0226C26.3401 44.239 25.1454 43.6182 23.8234 43.1588C22.5043 42.6968 21.1265 42.4658 19.6902 42.4658ZM19.6902 74.6903C21.1265 74.6903 22.5043 74.4685 23.8234 74.0236C25.1454 73.5799 26.3401 72.967 27.4077 72.1861C28.4782 71.4025 29.4057 70.4824 30.1917 69.4246C30.9764 68.3641 31.5366 67.2353 31.8724 66.0383V74.6903H19.6902ZM19.1872 58.5781C20.0904 58.5781 20.9765 58.7251 21.8454 59.0191C22.7143 59.3104 23.499 59.7003 24.2007 60.1898C24.901 60.6807 25.5012 61.2634 26.0014 61.9381C26.5045 62.614 26.8732 63.3346 27.1105 64.1011V53.0551C26.8732 53.8216 26.5045 54.5434 26.0014 55.2181C25.5012 55.894 24.901 56.4781 24.2007 56.9716C23.499 57.4624 22.7143 57.8523 21.8454 58.1423C20.9765 58.4337 20.0904 58.5781 19.1872 58.5781Z" fill="white"/>
<path d="M40.4504 61.2501V72.1596C40.4504 72.7135 40.6505 73.2503 41.0507 73.7713C41.4508 74.2937 41.9339 74.5995 42.5027 74.6901H30.875C31.4424 74.5995 31.9269 74.2937 32.327 73.7713C32.7301 73.2503 32.933 72.7135 32.933 72.1596V55.7691C32.933 55.189 32.7301 54.6443 32.327 54.1363C31.9269 53.6297 31.4424 53.3305 30.875 53.2386L39.45 52.0888H39.5986C40.166 52.0888 40.4504 52.35 40.4504 52.8711V61.2501ZM53.633 72.1596C53.633 72.7135 53.8331 73.2503 54.2333 73.7713C54.6335 74.2937 55.1165 74.5995 55.6853 74.6901H44.0576C44.625 74.5995 45.1095 74.2937 45.5097 73.7713C45.9127 73.2503 46.1156 72.7135 46.1156 72.1596V58.5778C46.1156 57.9977 46.2485 57.5068 46.5158 57.1078C46.7816 56.7088 47.0817 56.3492 47.4133 56.0263C47.7477 55.7048 48.0493 55.3832 48.3165 55.0603C48.5867 54.7348 48.7224 54.3595 48.7224 53.9316C48.7224 53.4105 48.4037 52.9577 47.7677 52.5718C47.1303 52.1873 46.3114 51.9943 45.3096 51.9943C44.242 51.9943 43.2887 52.119 42.4513 52.3671C41.6166 52.6125 41.0335 52.812 40.702 52.9656C41.871 52.4406 43.2001 52.0495 44.6865 51.7896C46.1728 51.5271 47.582 51.535 48.9168 51.8106C50.2545 52.0875 51.375 52.7018 52.2782 53.6533C53.1814 54.6062 53.633 56.0316 53.633 57.9321V72.1596Z" fill="white"/>
<path d="M54.7801 62.3528C54.9473 60.7568 55.3817 59.2698 56.0835 57.8903C56.7838 56.5083 57.6613 55.3336 58.7131 54.3676C59.765 53.4016 60.9326 52.6744 62.2175 52.1836C63.5051 51.6901 64.8357 51.505 66.2077 51.6271C67.5454 51.7819 68.663 52.0733 69.5634 52.5038C69.0975 52.3188 68.6316 52.2256 68.1628 52.2256C67.3282 52.2256 66.5507 52.5117 65.8304 53.0813C65.1129 53.6483 64.4784 54.4148 63.9267 55.3808C63.3736 56.3468 62.9392 57.4677 62.6233 58.7408C62.3061 60.0153 62.1489 61.3579 62.1489 62.7676C62.1489 64.1785 62.3061 65.5291 62.6233 66.8206C62.9392 68.1094 63.3736 69.2448 63.9267 70.2278C64.4784 71.2083 65.1129 71.9905 65.8304 72.5746C66.5507 73.156 67.3282 73.4461 68.1628 73.4461C68.4286 73.4461 68.6716 73.4172 68.8888 73.3568C69.106 73.2938 69.3304 73.2177 69.5634 73.1258C68.663 73.7703 67.6854 74.2533 66.6307 74.5748C65.5789 74.8964 64.5013 74.9961 63.4008 74.8741C62.0288 74.7507 60.774 74.3307 59.6392 73.6088C58.503 72.8883 57.5426 71.9603 56.758 70.8263C55.972 69.6897 55.3946 68.3929 55.0259 66.9361C54.66 65.4766 54.5771 63.9488 54.7801 62.3528ZM77.3323 71.2358C77.3323 71.7897 77.5324 72.3265 77.9326 72.8476C78.3356 73.3699 78.8215 73.6771 79.3903 73.7716L70.8153 74.9213H70.6667C70.4337 74.9213 70.2337 74.8439 70.0664 74.6903C69.8978 74.5368 69.8149 74.3373 69.8149 74.0918V46.1513C69.8149 45.5988 69.6148 45.0619 69.2147 44.5396C68.8145 44.0185 68.33 43.7127 67.7626 43.6208L76.3319 42.4658H76.4805C76.7464 42.4658 76.955 42.5433 77.1037 42.6968C77.2551 42.8517 77.3323 43.0512 77.3323 43.2953V71.2358Z" fill="white"/>
<mask id="mask0_48_878" style="mask-type:luminance" maskUnits="userSpaceOnUse" x="82" y="66" width="16" height="15">
<path d="M82.8906 66.4761H97.7764V80.0292H82.8906V66.4761Z" fill="white"/>
</mask>
<g mask="url(#mask0_48_878)">
<path d="M97.6425 73.2499C92.1095 74.1861 91.284 74.9442 90.2665 80.0237C89.2471 74.9442 88.4216 74.1861 82.8906 73.2499C88.4216 72.3155 89.2471 71.5573 90.2665 66.4761C91.284 71.5573 92.1095 72.3155 97.6425 73.2499Z" fill="white"/>
</g>
</svg>
