<svg width="58" height="49" viewBox="0 0 58 49" fill="none" xmlns="http://www.w3.org/2000/svg">
<path d="M7.50793 9.47683V11.1621C7.50793 11.622 7.68048 12.0409 8.02558 12.4189C8.37237 12.7954 8.80375 12.9828 9.31801 12.9828C8.80375 12.9828 8.37237 13.1718 8.02558 13.5498C7.68048 13.9278 7.50793 14.3467 7.50793 14.8066V20.8263C7.50793 21.2885 7.68048 21.7083 8.02558 22.0863C8.37237 22.4627 8.80375 22.6501 9.31801 22.6501H0.507812C1.00178 22.6501 1.42131 22.4627 1.76641 22.0863C2.1132 21.7083 2.28745 21.2885 2.28745 20.8263V5.13928C2.28745 4.67938 2.1132 4.26043 1.76641 3.88243C1.42131 3.50443 1.00178 3.31543 0.507812 3.31543H9.31801C8.80375 3.31543 8.37237 3.50443 8.02558 3.88243C7.68048 4.26043 7.50793 4.67938 7.50793 5.13928V9.47683ZM17.2113 20.8263C17.2113 21.2885 17.3839 21.7083 17.729 22.0863C18.0741 22.4627 18.5038 22.6501 19.018 22.6501H10.2078C10.7035 22.6501 11.1247 22.4627 11.4698 22.0863C11.8149 21.7083 11.9875 21.2885 11.9875 20.8263V14.8066C11.9875 14.3467 11.8149 13.9278 11.4698 13.5498C11.1247 13.1718 10.7035 12.9828 10.2078 12.9828C10.7035 12.9828 11.1247 12.7954 11.4698 12.4189C11.8149 12.0409 11.9875 11.622 11.9875 11.1621V5.13928C11.9875 4.67938 11.8149 4.26043 11.4698 3.88243C11.1247 3.50443 10.7035 3.31543 10.2078 3.31543H19.018C18.5038 3.31543 18.0741 3.50443 17.729 3.88243C17.3839 4.26043 17.2113 4.67938 17.2113 5.13928V20.8263Z" fill="white"/>
<path d="M24.089 21.1318C24.089 21.4642 24.2074 21.7862 24.4442 22.0989C24.681 22.4123 24.9669 22.5958 25.3036 22.6501H18.4219C18.7577 22.5958 19.0444 22.4123 19.2812 22.0989C19.5198 21.7862 19.6399 21.4642 19.6399 21.1318V11.2975C19.6399 10.9495 19.5198 10.6226 19.2812 10.3179C19.0444 10.0139 18.7577 9.83436 18.4219 9.77923L23.4969 9.08938H23.5848C23.9206 9.08938 24.089 9.24609 24.089 9.55873V21.1318ZM21.8627 7.59628C21.2309 7.59628 20.6921 7.38996 20.2455 6.97573C19.8006 6.56229 19.579 6.06065 19.579 5.47003C19.579 4.88255 19.8006 4.37619 20.2455 3.95173C20.6921 3.52805 21.2309 3.31543 21.8627 3.31543C22.4963 3.31543 23.0401 3.52805 23.4935 3.95173C23.9486 4.37619 24.1769 4.88255 24.1769 5.47003C24.1769 5.76613 24.1169 6.04333 23.9976 6.30163C23.88 6.55836 23.7176 6.78279 23.5104 6.97573C23.3023 7.16946 23.0554 7.32144 22.7695 7.43248C22.4827 7.54194 22.1808 7.59628 21.8627 7.59628Z" fill="white"/>
<path d="M36.9045 19.6671C37.4568 19.7954 37.9702 20.0073 38.4439 20.3034C38.9192 20.5979 39.3303 20.957 39.6754 21.3807C40.0222 21.8028 40.2946 22.2769 40.4908 22.8013C40.6887 23.3258 40.7885 23.8739 40.7885 24.4456C40.7885 23.9479 40.6845 23.4865 40.4773 23.0628C40.2692 22.6407 39.9875 22.269 39.6314 21.9477C39.277 21.6248 38.8719 21.3712 38.4168 21.1885C37.9609 21.0043 37.4864 20.9113 36.9924 20.9113C36.3987 20.9113 35.8641 21.0358 35.3887 21.283C34.9151 21.5311 34.4651 21.8398 34.0388 22.2091C33.6142 22.5769 33.1997 22.9762 32.7937 23.4093C32.3894 23.8416 31.9699 24.2417 31.5351 24.6094C31.0995 24.9788 30.6352 25.2875 30.1412 25.5355C29.6472 25.7852 29.1034 25.9104 28.5104 25.9104C27.9759 25.9104 27.4802 25.8127 27.0251 25.6174C26.5692 25.4237 26.1692 25.1575 25.8241 24.8173C25.479 24.4771 25.2066 24.081 25.0087 23.6298C24.8099 23.1778 24.7109 22.695 24.7109 22.1808C24.7109 21.3515 24.9579 20.6152 25.4519 19.9726C25.9475 19.3285 26.5819 18.8859 27.3533 18.6465C27.0759 18.7937 26.8577 19.0292 26.7003 19.3521C26.5422 19.6734 26.4635 19.9907 26.4635 20.3034C26.4635 20.7995 26.6547 21.2263 27.0387 21.5854C27.4244 21.9445 27.8845 22.1241 28.4191 22.1241C28.9739 22.1241 29.5322 22.0004 30.0938 21.7524C30.6571 21.5051 31.2374 21.2248 31.8329 20.9113C31.0006 20.8003 30.2275 20.5703 29.5153 20.2215C28.8048 19.871 28.1865 19.4293 27.6612 18.8953C27.1376 18.3598 26.7274 17.7519 26.4297 17.0715C26.1336 16.3895 25.9865 15.6619 25.9865 14.8885C25.9865 14.0782 26.1539 13.3135 26.4906 12.5953C26.8264 11.8771 27.2806 11.2424 27.8541 10.6896C28.4292 10.1375 29.1067 9.69654 29.8874 9.36658C30.6698 9.03504 31.5055 8.84998 32.3945 8.81218C31.7627 8.95944 31.2831 9.55401 30.9566 10.5951C30.6292 11.6346 30.466 13.0663 30.466 14.8885C30.466 16.51 30.5988 17.8228 30.8652 18.826C31.1333 19.8277 31.525 20.4861 32.0392 20.8011C32.4131 20.5979 32.7836 20.4089 33.149 20.2341C33.5161 20.06 33.8975 19.9175 34.2925 19.8057C34.5497 19.2891 34.7366 18.6173 34.8542 17.7897C34.9734 16.9604 35.0335 15.9934 35.0335 14.8885C35.0335 13.0663 34.8694 11.6346 34.5429 10.5951C34.2181 9.55401 33.7394 8.95944 33.1084 8.81218C33.9965 8.84998 34.8313 9.03504 35.612 9.36658C36.3944 9.69654 37.0719 10.1375 37.6454 10.6896C38.2181 11.2424 38.6723 11.8771 39.0089 12.5953C39.3447 13.3135 39.513 14.0782 39.513 14.8885C39.513 15.865 39.2804 16.7683 38.8161 17.5975C38.3508 18.4252 37.7139 19.115 36.9045 19.6671ZM35.3921 27.7311C35.272 27.861 35.1629 27.9996 35.0639 28.1469C34.9641 28.2934 34.9151 28.4406 34.9151 28.5879C34.9151 28.8084 34.9937 28.9879 35.1519 29.1265C35.3118 29.2651 35.5291 29.3344 35.8049 29.3344C35.2314 29.3344 34.6884 29.251 34.1741 29.0856C33.6599 28.9194 33.1997 28.6934 32.7937 28.4083C32.3894 28.1225 32.068 27.7909 31.8295 27.4129C31.5926 27.0365 31.4742 26.6365 31.4742 26.2128C31.4742 25.6222 31.7017 25.115 32.1577 24.6913C32.6127 24.2692 33.1566 24.0582 33.7884 24.0582C34.1039 24.0582 34.4008 24.1125 34.6782 24.222C34.9557 24.333 35.1976 24.485 35.4057 24.6787C35.6129 24.874 35.7753 25.1048 35.8929 25.3717C36.0121 25.6379 36.0722 25.9183 36.0722 26.2128C36.0722 26.8026 35.8455 27.309 35.3921 27.7311ZM35.8353 9.30988C35.2213 8.88621 34.6579 8.34756 34.1437 7.69393C33.6294 7.04109 33.3723 6.30006 33.3723 5.47003C33.3723 4.88255 33.5998 4.37619 34.0557 3.95173C34.5108 3.52805 35.0546 3.31543 35.6865 3.31543C36.0045 3.31543 36.3005 3.37134 36.5763 3.48238C36.8537 3.5942 37.0956 3.74619 37.3037 3.93913C37.5109 4.13285 37.6733 4.3628 37.7909 4.62898C37.9102 4.89594 37.9702 5.17629 37.9702 5.47003C37.9702 5.96773 37.8264 6.37329 37.5405 6.68593C37.2538 6.99936 36.8842 7.26553 36.4308 7.48603C36.0942 7.65219 35.8463 7.80418 35.6865 7.94278C35.5283 8.08138 35.4496 8.27983 35.4496 8.53813C35.4496 8.77753 35.5782 9.03504 35.8353 9.30988Z" fill="white"/>
<path d="M45.8936 21.1318C45.8936 21.4642 46.0121 21.7862 46.2489 22.0989C46.4857 22.4123 46.7716 22.5958 47.1083 22.6501H40.2266C40.5624 22.5958 40.8491 22.4123 41.0859 22.0989C41.3245 21.7862 41.4446 21.4642 41.4446 21.1318V5.52673C41.4446 5.19519 41.3245 4.8731 41.0859 4.55968C40.8491 4.24704 40.5624 4.06355 40.2266 4.00843L45.3016 3.31543H45.3895C45.5469 3.31543 45.6703 3.36189 45.7583 3.45403C45.848 3.54695 45.8936 3.66665 45.8936 3.81313V21.1318ZM53.6956 21.1318C53.6956 21.4642 53.814 21.7862 54.0509 22.0989C54.2877 22.4123 54.5736 22.5958 54.9102 22.6501H48.0285C48.3643 22.5958 48.6511 22.4123 48.8879 22.0989C49.1264 21.7862 49.2465 21.4642 49.2465 21.1318V12.9828C49.2465 12.6347 49.3252 12.3402 49.4834 12.1008C49.6407 11.8614 49.8183 11.6456 50.0145 11.4519C50.2125 11.2589 50.3909 11.066 50.5491 10.8723C50.709 10.677 50.7893 10.4518 50.7893 10.195C50.7893 9.88239 50.6007 9.6107 50.2243 9.37918C49.8471 9.14844 49.3624 9.03268 48.7695 9.03268C48.1376 9.03268 47.5735 9.10749 47.0778 9.25633C46.5838 9.40359 46.2387 9.52329 46.0425 9.61543C46.7344 9.30043 47.521 9.06576 48.4007 8.90983C49.2804 8.75233 50.1144 8.75706 50.9044 8.92243C51.6961 9.08859 52.3592 9.45714 52.8938 10.0281C53.4283 10.5998 53.6956 11.455 53.6956 12.5953V21.1318Z" fill="white"/>
<path d="M11.3595 25.6464V44.8142H4.35938C4.85334 44.8142 5.27288 44.6268 5.61798 44.2503C5.96477 43.8723 6.13901 43.4526 6.13901 42.9903V27.3033C6.13901 26.8434 5.96477 26.4245 5.61798 26.0465C5.27288 25.6685 4.85334 25.4795 4.35938 25.4795H11.3595V25.6464ZM11.6572 25.4795H18.8671V30.7022C18.6683 29.984 18.3368 29.3083 17.8724 28.6736C17.4072 28.0373 16.8583 27.4845 16.2247 27.0135C15.5929 26.5434 14.8858 26.1709 14.1034 25.8953C13.3227 25.6181 12.5073 25.4795 11.6572 25.4795ZM11.6572 44.8142C12.5073 44.8142 13.3227 44.6811 14.1034 44.4141C14.8858 44.148 15.5929 43.7802 16.2247 43.3116C16.8583 42.8415 17.4072 42.2895 17.8724 41.6547C18.3368 41.0184 18.6683 40.3412 18.8671 39.623V44.8142H11.6572ZM11.3595 35.1468C11.8941 35.1468 12.4185 35.235 12.9327 35.4114C13.447 35.5863 13.9114 35.8202 14.3267 36.1139C14.7411 36.4084 15.0964 36.7581 15.3924 37.1628C15.6902 37.5684 15.9084 38.0007 16.0488 38.4606V31.833C15.9084 32.2929 15.6902 32.7261 15.3924 33.1308C15.0964 33.5364 14.7411 33.8868 14.3267 34.1829C13.9114 34.4775 13.447 34.7114 12.9327 34.8854C12.4185 35.0602 11.8941 35.1468 11.3595 35.1468Z" fill="white"/>
<path d="M23.9405 36.7501V43.2958C23.9405 43.6282 24.0589 43.9503 24.2958 44.2629C24.5326 44.5763 24.8185 44.7598 25.1551 44.8141H18.2734C18.6092 44.7598 18.896 44.5763 19.1328 44.2629C19.3713 43.9503 19.4914 43.6282 19.4914 43.2958V33.4615C19.4914 33.1135 19.3713 32.7867 19.1328 32.4819C18.896 32.1779 18.6092 31.9984 18.2734 31.9432L23.3484 31.2534H23.4364C23.7722 31.2534 23.9405 31.4101 23.9405 31.7227V36.7501ZM31.7425 43.2958C31.7425 43.6282 31.8609 43.9503 32.0977 44.2629C32.3346 44.5763 32.6205 44.7598 32.9571 44.8141H26.0754C26.4112 44.7598 26.6979 44.5763 26.9348 44.2629C27.1733 43.9503 27.2934 43.6282 27.2934 43.2958V35.1468C27.2934 34.7987 27.3721 34.5042 27.5302 34.2648C27.6876 34.0254 27.8652 33.8096 28.0614 33.6159C28.2593 33.423 28.4378 33.23 28.596 33.0363C28.7558 32.841 28.8362 32.6158 28.8362 32.359C28.8362 32.0464 28.6476 31.7747 28.2712 31.5432C27.8939 31.3125 27.4093 31.1967 26.8164 31.1967C26.1845 31.1967 25.6203 31.2715 25.1247 31.4203C24.6307 31.5676 24.2856 31.6873 24.0894 31.7794C24.7813 31.4644 25.5679 31.2298 26.4476 31.0738C27.3272 30.9163 28.1612 30.9211 28.9512 31.0864C29.7429 31.2526 30.4061 31.6212 30.9406 32.1921C31.4752 32.7638 31.7425 33.619 31.7425 34.7593V43.2958Z" fill="white"/>
<path d="M32.4234 37.4117C32.5224 36.4541 32.7795 35.5619 33.1948 34.7342C33.6093 33.905 34.1286 33.2001 34.7511 32.6205C35.3737 32.0409 36.0647 31.6047 36.8251 31.3101C37.5872 31.014 38.3747 30.903 39.1867 30.9762C39.9784 31.0692 40.6398 31.244 41.1727 31.5023C40.897 31.3913 40.6212 31.3353 40.3438 31.3353C39.8498 31.3353 39.3897 31.507 38.9634 31.8488C38.5388 32.189 38.1632 32.6489 37.8367 33.2285C37.5094 33.8081 37.2523 34.4806 37.0653 35.2445C36.8776 36.0092 36.7845 36.8148 36.7845 37.6605C36.7845 38.5071 36.8776 39.3174 37.0653 40.0923C37.2523 40.8657 37.5094 41.5469 37.8367 42.1367C38.1632 42.725 38.5388 43.1943 38.9634 43.5447C39.3897 43.8936 39.8498 44.0676 40.3438 44.0676C40.5011 44.0676 40.6449 44.0503 40.7735 44.0141C40.902 43.9763 41.0348 43.9306 41.1727 43.8755C40.6398 44.2622 40.0613 44.552 39.4371 44.7449C38.8145 44.9378 38.1768 44.9977 37.5255 44.9244C36.7135 44.8504 35.9708 44.5984 35.2992 44.1653C34.6268 43.733 34.0584 43.1762 33.594 42.4958C33.1288 41.8138 32.7871 41.0358 32.5689 40.1616C32.3524 39.2859 32.3033 38.3693 32.4234 37.4117ZM45.7707 42.7415C45.7707 43.0738 45.8891 43.3959 46.1259 43.7085C46.3644 44.022 46.652 44.2062 46.9887 44.2629L41.9137 44.9528H41.8257C41.6878 44.9528 41.5694 44.9063 41.4704 44.8142C41.3706 44.7221 41.3216 44.6024 41.3216 44.4551V27.6908C41.3216 27.3593 41.2032 27.0372 40.9663 26.7237C40.7295 26.4111 40.4428 26.2276 40.107 26.1725L45.1786 25.4795H45.2665C45.4239 25.4795 45.5474 25.526 45.6353 25.6181C45.725 25.711 45.7707 25.8307 45.7707 25.9772V42.7415Z" fill="white"/>
<mask id="mask0_6_482" style="mask-type:luminance" maskUnits="userSpaceOnUse" x="49" y="39" width="9" height="10">
<path d="M49.0625 39.8857H57.8724V48.0176H49.0625V39.8857Z" fill="white"/>
</mask>
<g mask="url(#mask0_6_482)">
<path d="M57.7932 43.95C54.5186 44.5118 54.03 44.9666 53.4278 48.0143C52.8245 44.9666 52.3359 44.5118 49.0625 43.95C52.3359 43.3894 52.8245 42.9345 53.4278 39.8857C54.03 42.9345 54.5186 43.3894 57.7932 43.95Z" fill="white"/>
</g>
</svg>
