<svg width="150" height="150" viewBox="0 0 150 150" fill="none" xmlns="http://www.w3.org/2000/svg">
<path d="M19.7564 42.7266C20.3142 40.9999 20.9462 39.3006 21.6505 37.6336L54.3368 4.94739C56.0038 4.24307 57.703 3.61107 59.4298 3.05324L19.7564 42.7266Z" fill="black"/>
<path d="M17.6526 51.2279C17.8902 49.8683 18.1716 48.5202 18.4962 47.1854L63.8886 1.79304C65.2233 1.46852 66.5714 1.18707 67.931 0.949493L17.6526 51.2279Z" fill="black"/>
<path d="M16.8123 58.4661C16.8809 57.2934 16.9815 56.1263 17.1137 54.9659L71.6691 0.410545C72.8294 0.278344 73.9965 0.177751 75.1693 0.109224L16.8123 58.4661Z" fill="black"/>
<path d="M16.7598 64.9161C16.7378 64.3927 16.7223 63.8687 16.7131 63.3442C16.7038 62.8194 16.7011 62.2954 16.7046 61.7723L78.4754 0.00150178C78.9986 -0.00207056 79.5226 0.000726912 80.0473 0.0099308C80.5719 0.0191316 81.0959 0.0347145 81.6192 0.0566336L16.7598 64.9161Z" fill="black"/>
<path d="M17.2751 70.7989C17.1473 69.8425 17.0407 68.8825 16.9555 67.9195L84.6227 0.25238C85.5856 0.337601 86.5456 0.444222 87.502 0.571944L17.2751 70.7989Z" fill="black"/>
<path d="M18.236 76.2356C18.0409 75.3503 17.8639 74.4607 17.7054 73.5674L90.2705 1.00225C91.1639 1.16075 92.0535 1.33772 92.9387 1.53292L18.236 76.2356Z" fill="black"/>
<path d="M19.5662 81.3028C19.3142 80.4771 19.0782 79.6465 18.8586 78.8116L95.5147 2.15545C96.3497 2.37508 97.1802 2.61103 98.0059 2.86311L19.5662 81.3028Z" fill="black"/>
<path d="M21.215 86.0521C20.9132 85.2783 20.6259 84.4991 20.3533 83.7149L100.418 3.65022C101.202 3.92277 101.981 4.21003 102.755 4.51184L21.215 86.0521Z" fill="black"/>
<path d="M23.1467 90.5182C22.8002 89.7907 22.4669 89.0575 22.1472 88.3188L105.022 5.44407C105.761 5.76381 106.494 6.09702 107.221 6.44353L23.1467 90.5182Z" fill="black"/>
<path d="M25.3363 94.726C24.9487 94.0411 24.5733 93.35 24.2105 92.653L109.356 7.50733C110.053 7.87021 110.744 8.24555 111.429 8.6332L25.3363 94.726Z" fill="black"/>
<path d="M27.7664 98.6938C27.3402 98.0488 26.9254 97.3971 26.5223 96.7392L113.442 9.81915C114.1 10.2223 114.752 10.637 115.397 11.0633L27.7664 98.6938Z" fill="black"/>
<path d="M30.4242 102.433C29.961 101.826 29.5087 101.212 29.0674 100.591L117.295 12.3642C117.915 12.8056 118.53 13.2579 119.137 13.7211L30.4242 102.433Z" fill="black"/>
<path d="M33.3019 105.954C32.8029 105.384 32.3143 104.806 31.836 104.221L120.924 15.1329C121.509 15.6111 122.087 16.0998 122.657 16.5988L33.3019 105.954Z" fill="black"/>
<path d="M36.3942 109.259C35.86 108.725 35.3357 108.183 34.8214 107.633L124.336 18.1183C124.886 18.6326 125.428 19.1569 125.962 19.6911L36.3942 109.259Z" fill="black"/>
<path d="M48.0537 8.0316L24.7347 31.3506C27.4514 26.5281 30.8226 22.0638 34.7948 18.0917C38.7669 14.1195 43.2312 10.7483 48.0537 8.0316Z" fill="black"/>
<path d="M131.237 107.273C130.679 109 130.047 110.699 129.343 112.366L96.6569 145.053C94.9899 145.757 93.2906 146.389 91.5639 146.947L131.237 107.273Z" fill="black"/>
<path d="M133.341 98.7721C133.103 100.132 132.822 101.48 132.497 102.815L87.1051 148.207C85.7703 148.531 84.4222 148.813 83.0627 149.05L133.341 98.7721Z" fill="black"/>
<path d="M134.181 91.5339C134.113 92.7066 134.012 93.8737 133.88 95.034L79.3246 149.589C78.1642 149.722 76.9971 149.822 75.8244 149.891L134.181 91.5339Z" fill="black"/>
<path d="M134.234 85.0839C134.256 85.6073 134.271 86.1313 134.281 86.6558C134.29 87.1806 134.293 87.7045 134.289 88.2277L72.5182 149.998C71.9951 150.002 71.4711 149.999 70.9463 149.99C70.4218 149.981 69.8978 149.965 69.3745 149.943L134.234 85.0839Z" fill="black"/>
<path d="M133.719 79.2011C133.846 80.1575 133.953 81.1175 134.038 82.0804L66.371 149.748C65.4081 149.662 64.4481 149.556 63.4917 149.428L133.719 79.2011Z" fill="black"/>
<path d="M132.758 73.7644C132.953 74.6497 133.13 75.5392 133.288 76.4326L60.7231 148.998C59.8298 148.839 58.9402 148.662 58.0549 148.467L132.758 73.7644Z" fill="black"/>
<path d="M131.427 68.6972C131.679 69.5229 131.915 70.3535 132.135 71.1884L55.479 147.845C54.644 147.625 53.8134 147.389 52.9877 147.137L131.427 68.6972Z" fill="black"/>
<path d="M129.779 63.9478C130.08 64.7217 130.368 65.5009 130.64 66.2851L50.5756 146.35C49.7915 146.077 49.0122 145.79 48.2384 145.488L129.779 63.9478Z" fill="black"/>
<path d="M127.847 59.4818C128.193 60.2093 128.527 60.9425 128.846 61.6812L45.9717 144.556C45.233 144.236 44.4998 143.903 43.7723 143.556L127.847 59.4818Z" fill="black"/>
<path d="M125.657 55.274C126.045 55.9588 126.42 56.65 126.783 57.3469L41.6375 142.493C40.9405 142.13 40.2494 141.754 39.5645 141.367L125.657 55.274Z" fill="black"/>
<path d="M123.227 51.3061C123.653 51.9512 124.068 52.6028 124.471 53.2608L37.5514 140.181C36.8934 139.778 36.2417 139.363 35.5967 138.937L123.227 51.3061Z" fill="black"/>
<path d="M120.569 47.5665C121.033 48.1736 121.485 48.7877 121.926 49.4085L33.6991 137.636C33.0782 137.194 32.4641 136.742 31.857 136.279L120.569 47.5665Z" fill="black"/>
<path d="M117.692 44.0461C118.191 44.6164 118.679 45.1942 119.158 45.7791L30.0697 134.867C29.4847 134.389 28.9069 133.9 28.3367 133.401L117.692 44.0461Z" fill="black"/>
<path d="M26.6573 131.882C26.1075 131.367 25.5654 130.843 25.0312 130.309L114.599 40.7407C115.134 41.2749 115.658 41.817 116.172 42.3668L26.6573 131.882Z" fill="black"/>
<path d="M102.94 141.968L126.259 118.649C123.542 123.472 120.171 127.936 116.199 131.908C112.227 135.88 107.762 139.252 102.94 141.968Z" fill="black"/>
</svg>
