<svg width="150" height="150" viewBox="0 0 150 150" fill="none" xmlns="http://www.w3.org/2000/svg">
<path fill-rule="evenodd" clip-rule="evenodd" d="M41.6667 33.3333C41.6667 14.9238 56.5905 0 75 0C93.4095 0 108.333 14.9238 108.333 33.3333V41.6667H116.667C135.076 41.6667 150 56.5905 150 75C150 93.4095 135.076 108.333 116.667 108.333H108.333V116.667C108.333 135.076 93.4095 150 75 150C56.5905 150 41.6667 135.076 41.6667 116.667V108.333H33.3333C14.9238 108.333 0 93.4095 0 75C0 56.5905 14.9238 41.6667 33.3333 41.6667H41.6667V33.3333ZM39.5833 76.0417C53.0611 79.2319 71.018 98.7395 75 114.583C78.9821 98.7395 96.9389 79.2319 110.417 76.0417C96.9389 72.8515 78.9821 53.3438 75 37.5C71.018 53.3438 53.0611 72.8515 39.5833 76.0417Z" fill="black"/>
</svg>
