<svg width="150" height="150" viewBox="0 0 150 150" fill="none" xmlns="http://www.w3.org/2000/svg">
<path d="M75 0L76.7168 48.8062L84.7895 0.641634L80.1211 49.2544L94.4114 2.55557L83.4378 50.1431L103.701 5.70904L86.6101 51.4571L112.5 10.0481L89.5837 53.1739L120.657 15.4985L92.3078 55.2642L128.033 21.967L94.7358 57.6922L134.501 29.3429L96.8261 60.4163L139.952 37.5L98.5429 63.3899L144.291 46.2987L99.8569 66.5622L147.444 55.5886L100.746 69.8789L149.358 65.2105L101.194 73.2832L150 75L101.194 76.7168L149.358 84.7895L100.746 80.1211L147.444 94.4114L99.8569 83.4378L144.291 103.701L98.5429 86.6101L139.952 112.5L96.8261 89.5837L134.501 120.657L94.7358 92.3078L128.033 128.033L92.3078 94.7358L120.657 134.501L89.5837 96.8261L112.5 139.952L86.6101 98.5429L103.701 144.291L83.4378 99.8569L94.4114 147.444L80.1211 100.746L84.7895 149.358L76.7168 101.194L75 150L73.2832 101.194L65.2105 149.358L69.8789 100.746L55.5886 147.444L66.5622 99.8569L46.2987 144.291L63.3899 98.5429L37.5 139.952L60.4163 96.8261L29.3429 134.501L57.6922 94.7358L21.967 128.033L55.2642 92.3078L15.4985 120.657L53.1739 89.5837L10.0481 112.5L51.4571 86.6101L5.70904 103.701L50.1431 83.4378L2.55557 94.4114L49.2544 80.1211L0.641634 84.7895L48.8062 76.7168L0 75L48.8062 73.2832L0.641634 65.2105L49.2544 69.8789L2.55557 55.5886L50.1431 66.5622L5.70904 46.2987L51.4571 63.3899L10.0481 37.5L53.1739 60.4163L15.4985 29.3429L55.2642 57.6922L21.967 21.967L57.6922 55.2642L29.3429 15.4985L60.4163 53.1739L37.5 10.0481L63.3899 51.4571L46.2987 5.70904L66.5622 50.1431L55.5886 2.55557L69.8789 49.2544L65.2105 0.641634L73.2832 48.8062L75 0Z" fill="black"/>
</svg>
