<svg width="150" height="150" viewBox="0 0 150 150" fill="none" xmlns="http://www.w3.org/2000/svg">
<path fill-rule="evenodd" clip-rule="evenodd" d="M0 132.5V130V127.5L3.00937e-05 127.463V125C3.00937e-05 111.193 11.1929 100 25 100C38.8071 100 49.9999 111.193 49.9999 125C49.9999 138.807 38.8071 150 25 150H20.0695L20 150H1H0V150V150V150V150V150V149V149V149V149V149V149V140V137.5V135V132.5ZM10.0466 149H1.00003V139.976C1.01272 135.017 5.03727 131 9.99998 131C14.9705 131 19 135.029 19 140C19 144.955 14.9957 148.975 10.0466 149ZM14.8135 148.767C17.905 147.066 20 143.778 20 140C20 134.477 15.5228 130 9.99998 130C6.2224 130 2.93403 132.094 1.23297 135.186C2.30404 129.944 6.94147 126 12.5 126C18.8512 126 24 131.149 24 137.5C24 143.059 20.0559 147.696 14.8135 148.767ZM28.9999 135C28.9999 141.637 24.3817 147.195 18.1835 148.636C22.2299 146.567 25 142.357 25 137.5C25 130.596 19.4035 125 12.5 125C7.64254 125 3.43222 127.771 1.36317 131.818C2.80387 125.619 8.3625 121 15 121C22.7319 121 28.9999 127.268 28.9999 135ZM21.5442 148.501C26.5495 146.07 29.9999 140.938 29.9999 135C29.9999 126.715 23.2842 120 15 120C9.06234 120 3.93048 123.45 1.49957 128.454C3.30345 121.298 9.78305 116 17.5 116C26.6126 116 33.9999 123.387 33.9999 132.5C33.9999 140.217 28.7017 146.697 21.5442 148.501ZM38.9999 130C38.9999 138.798 33.0202 146.199 24.9034 148.361C30.8678 145.573 34.9999 139.519 34.9999 132.5C34.9999 122.835 27.1649 115 17.5 115C10.4815 115 4.42809 119.132 1.63914 125.095C3.80172 116.979 11.2026 111 20 111C30.4934 111 38.9999 119.507 38.9999 130ZM28.2633 148.219C37.3387 145.699 43.9999 137.378 43.9999 127.5C43.9999 115.626 34.3741 106 22.5 106C12.6213 106 4.29872 112.662 1.7805 121.739C4.92493 114.815 11.9001 110 20 110C31.0456 110 39.9999 118.954 39.9999 130C39.9999 138.099 35.1859 145.074 28.2633 148.219ZM22.5 105C13.3192 105 5.42278 110.498 1.92412 118.382C4.79715 108.346 14.0407 101 25 101C38.2548 101 48.9999 111.745 48.9999 125C48.9999 135.96 41.6533 145.204 31.616 148.076C39.5005 144.578 44.9999 136.681 44.9999 127.5C44.9999 115.073 34.9263 105 22.5 105Z" fill="#595959"/>
<path fill-rule="evenodd" clip-rule="evenodd" d="M50 132.5V130V127.5L50 127.463V125C50 111.193 61.1929 100 75 100C88.8071 100 99.9999 111.193 99.9999 125C99.9999 138.807 88.8071 150 75 150H70.0695L70 150H51H50V150V150V150V150V150V149V149V149V149V149V149V140V137.5V135V132.5ZM60.0466 149H51V139.976C51.0127 135.017 55.0373 131 60 131C64.9705 131 69 135.029 69 140C69 144.955 64.9957 148.975 60.0466 149ZM64.8135 148.767C67.905 147.066 70 143.778 70 140C70 134.477 65.5228 130 60 130C56.2224 130 52.934 132.094 51.233 135.186C52.304 129.944 56.9415 126 62.5 126C68.8512 126 74 131.149 74 137.5C74 143.059 70.0559 147.696 64.8135 148.767ZM78.9999 135C78.9999 141.637 74.3817 147.195 68.1835 148.636C72.2299 146.567 75 142.357 75 137.5C75 130.596 69.4035 125 62.5 125C57.6425 125 53.4322 127.771 51.3632 131.818C52.8039 125.619 58.3625 121 65 121C72.7319 121 78.9999 127.268 78.9999 135ZM71.5442 148.501C76.5495 146.07 79.9999 140.938 79.9999 135C79.9999 126.715 73.2842 120 65 120C59.0623 120 53.9305 123.45 51.4996 128.454C53.3035 121.298 59.783 116 67.5 116C76.6126 116 83.9999 123.387 83.9999 132.5C83.9999 140.217 78.7017 146.697 71.5442 148.501ZM88.9999 130C88.9999 138.798 83.0202 146.199 74.9034 148.361C80.8678 145.573 84.9999 139.519 84.9999 132.5C84.9999 122.835 77.1649 115 67.5 115C60.4815 115 54.4281 119.132 51.6391 125.095C53.8017 116.979 61.2026 111 70 111C80.4934 111 88.9999 119.507 88.9999 130ZM78.2633 148.219C87.3387 145.699 93.9999 137.378 93.9999 127.5C93.9999 115.626 84.3741 106 72.5 106C62.6213 106 54.2987 112.662 51.7805 121.739C54.9249 114.815 61.9001 110 70 110C81.0456 110 89.9999 118.954 89.9999 130C89.9999 138.099 85.1859 145.074 78.2633 148.219ZM72.5 105C63.3192 105 55.4228 110.498 51.9241 118.382C54.7972 108.346 64.0407 101 75 101C88.2548 101 98.9999 111.745 98.9999 125C98.9999 135.96 91.6533 145.204 81.616 148.076C89.5005 144.578 94.9999 136.681 94.9999 127.5C94.9999 115.073 84.9263 105 72.5 105Z" fill="#595959"/>
<path fill-rule="evenodd" clip-rule="evenodd" d="M100 132.5V130V127.5L100 127.463V125C100 111.193 111.193 100 125 100C138.807 100 150 111.193 150 125C150 138.807 138.807 150 125 150H120.069L120 150H101H100V150V150V150V150V150V149V149V149V149V149V149V140V137.5V135V132.5ZM110.047 149H101V139.976C101.013 135.017 105.037 131 110 131C114.971 131 119 135.029 119 140C119 144.955 114.996 148.975 110.047 149ZM114.813 148.767C117.905 147.066 120 143.778 120 140C120 134.477 115.523 130 110 130C106.222 130 102.934 132.094 101.233 135.186C102.304 129.944 106.941 126 112.5 126C118.851 126 124 131.149 124 137.5C124 143.059 120.056 147.696 114.813 148.767ZM129 135C129 141.637 124.382 147.195 118.184 148.636C122.23 146.567 125 142.357 125 137.5C125 130.596 119.404 125 112.5 125C107.643 125 103.432 127.771 101.363 131.818C102.804 125.619 108.363 121 115 121C122.732 121 129 127.268 129 135ZM121.544 148.501C126.55 146.07 130 140.938 130 135C130 126.715 123.284 120 115 120C109.062 120 103.93 123.45 101.5 128.454C103.303 121.298 109.783 116 117.5 116C126.613 116 134 123.387 134 132.5C134 140.217 128.702 146.697 121.544 148.501ZM139 130C139 138.798 133.02 146.199 124.903 148.361C130.868 145.573 135 139.519 135 132.5C135 122.835 127.165 115 117.5 115C110.482 115 104.428 119.132 101.639 125.095C103.802 116.979 111.203 111 120 111C130.493 111 139 119.507 139 130ZM128.263 148.219C137.339 145.699 144 137.378 144 127.5C144 115.626 134.374 106 122.5 106C112.621 106 104.299 112.662 101.781 121.739C104.925 114.815 111.9 110 120 110C131.046 110 140 118.954 140 130C140 138.099 135.186 145.074 128.263 148.219ZM122.5 105C113.319 105 105.423 110.498 101.924 118.382C104.797 108.346 114.041 101 125 101C138.255 101 149 111.745 149 125C149 135.96 141.653 145.204 131.616 148.076C139.501 144.578 145 136.681 145 127.5C145 115.073 134.926 105 122.5 105Z" fill="#595959"/>
<path fill-rule="evenodd" clip-rule="evenodd" d="M0 82.4999V80.0001V77.4998L3.00937e-05 77.4626V75C3.00937e-05 61.1929 11.1929 50 25 50C38.8071 50 49.9999 61.1929 49.9999 75C49.9999 88.807 38.8071 99.9999 25 99.9999H20.0695L20 100H1H0V100V99.9998V99.9998V99.9997V99.9996V99V99V98.9998V98.9998V98.9997V98.9996V89.9998V87.5V84.9997V82.4999ZM10.0466 98.9996H1.00003V89.9762C1.01272 85.0165 5.03727 80.9998 9.99998 80.9998C14.9705 80.9998 19 85.0292 19 89.9998C19 94.9548 14.9957 98.9745 10.0466 98.9996ZM14.8135 98.7672C17.905 97.0662 20 93.7776 20 89.9998C20 84.4769 15.5228 79.9998 9.99998 79.9998C6.2224 79.9998 2.93403 82.0944 1.23297 85.1856C2.30404 79.9436 6.94147 76 12.5 76C18.8512 76 24 81.1487 24 87.5C24 93.0588 20.0559 97.6964 14.8135 98.7672ZM28.9999 84.9997C28.9999 91.6365 24.3817 97.1948 18.1835 98.6361C22.2299 96.5668 25 92.3569 25 87.5C25 80.5964 19.4035 75 12.5 75C7.64254 75 3.43222 77.7706 1.36317 81.8178C2.80387 75.6187 8.3625 70.9997 15 70.9997C22.7319 70.9997 28.9999 77.2677 28.9999 84.9997ZM21.5442 98.5006C26.5495 96.0699 29.9999 90.9377 29.9999 84.9997C29.9999 76.7154 23.2842 69.9997 15 69.9997C9.06234 69.9997 3.93048 73.4496 1.49957 78.4544C3.30345 71.2975 9.78305 65.9999 17.5 65.9999C26.6126 65.9999 33.9999 73.3872 33.9999 82.4999C33.9999 90.2172 28.7017 96.6971 21.5442 98.5006ZM38.9999 80.0001C38.9999 88.7979 33.0202 96.1992 24.9034 98.3613C30.8678 95.5726 34.9999 89.5188 34.9999 82.4999C34.9999 72.8349 27.1649 64.9999 17.5 64.9999C10.4815 64.9999 4.42809 69.1315 1.63914 75.0952C3.80172 66.9791 11.2026 61.0001 20 61.0001C30.4934 61.0001 38.9999 69.5067 38.9999 80.0001ZM28.2633 98.2185C37.3387 95.6994 43.9999 87.3775 43.9999 77.4998C43.9999 65.6257 34.3741 55.9998 22.5 55.9998C12.6213 55.9998 4.29872 62.6623 1.7805 71.739C4.92493 64.8151 11.9001 60.0001 20 60.0001C31.0456 60.0001 39.9999 68.9544 39.9999 80.0001C39.9999 88.099 35.1859 95.0736 28.2633 98.2185ZM22.5 54.9998C13.3192 54.9998 5.42278 60.4983 1.92412 68.3819C4.79715 58.3456 14.0407 51 25 51C38.2548 51 48.9999 61.7451 48.9999 75C48.9999 85.9599 41.6533 95.2041 31.616 98.0764C39.5005 94.5782 44.9999 86.6812 44.9999 77.4998C44.9999 65.0734 34.9263 54.9998 22.5 54.9998Z" fill="#595959"/>
<path fill-rule="evenodd" clip-rule="evenodd" d="M50 82.4999V80.0001V77.4998L50 77.4626V75C50 61.1929 61.1929 50 75 50C88.8071 50 99.9999 61.1929 99.9999 75C99.9999 88.807 88.8071 99.9999 75 99.9999H70.0695L70 100H51H50V100V99.9998V99.9998V99.9997V99.9996V99V99V98.9998V98.9998V98.9997V98.9996V89.9998V87.5V84.9997V82.4999ZM60.0466 98.9996H51V89.9762C51.0127 85.0165 55.0373 80.9998 60 80.9998C64.9705 80.9998 69 85.0292 69 89.9998C69 94.9548 64.9957 98.9745 60.0466 98.9996ZM64.8135 98.7672C67.905 97.0662 70 93.7776 70 89.9998C70 84.4769 65.5228 79.9998 60 79.9998C56.2224 79.9998 52.934 82.0944 51.233 85.1856C52.304 79.9436 56.9415 76 62.5 76C68.8512 76 74 81.1487 74 87.5C74 93.0588 70.0559 97.6964 64.8135 98.7672ZM78.9999 84.9997C78.9999 91.6365 74.3817 97.1948 68.1835 98.6361C72.2299 96.5668 75 92.3569 75 87.5C75 80.5964 69.4035 75 62.5 75C57.6425 75 53.4322 77.7706 51.3632 81.8178C52.8039 75.6187 58.3625 70.9997 65 70.9997C72.7319 70.9997 78.9999 77.2677 78.9999 84.9997ZM71.5442 98.5006C76.5495 96.0699 79.9999 90.9377 79.9999 84.9997C79.9999 76.7154 73.2842 69.9997 65 69.9997C59.0623 69.9997 53.9305 73.4496 51.4996 78.4544C53.3035 71.2975 59.783 65.9999 67.5 65.9999C76.6126 65.9999 83.9999 73.3872 83.9999 82.4999C83.9999 90.2172 78.7017 96.6971 71.5442 98.5006ZM88.9999 80.0001C88.9999 88.7979 83.0202 96.1992 74.9034 98.3613C80.8678 95.5726 84.9999 89.5188 84.9999 82.4999C84.9999 72.8349 77.1649 64.9999 67.5 64.9999C60.4815 64.9999 54.4281 69.1315 51.6391 75.0952C53.8017 66.9791 61.2026 61.0001 70 61.0001C80.4934 61.0001 88.9999 69.5067 88.9999 80.0001ZM78.2633 98.2185C87.3387 95.6994 93.9999 87.3775 93.9999 77.4998C93.9999 65.6257 84.3741 55.9998 72.5 55.9998C62.6213 55.9998 54.2987 62.6623 51.7805 71.739C54.9249 64.8151 61.9001 60.0001 70 60.0001C81.0456 60.0001 89.9999 68.9544 89.9999 80.0001C89.9999 88.099 85.1859 95.0736 78.2633 98.2185ZM72.5 54.9998C63.3192 54.9998 55.4228 60.4983 51.9241 68.3819C54.7972 58.3456 64.0407 51 75 51C88.2548 51 98.9999 61.7451 98.9999 75C98.9999 85.9599 91.6533 95.2041 81.616 98.0764C89.5005 94.5782 94.9999 86.6812 94.9999 77.4998C94.9999 65.0734 84.9263 54.9998 72.5 54.9998Z" fill="#595959"/>
<path fill-rule="evenodd" clip-rule="evenodd" d="M100 82.4999V80.0001V77.4998L100 77.4626V75C100 61.1929 111.193 50 125 50C138.807 50 150 61.1929 150 75C150 88.807 138.807 99.9999 125 99.9999H120.069L120 100H101H100V100V99.9998V99.9998V99.9997V99.9996V99V99V98.9998V98.9998V98.9997V98.9996V89.9998V87.5V84.9997V82.4999ZM110.047 98.9996H101V89.9762C101.013 85.0165 105.037 80.9998 110 80.9998C114.971 80.9998 119 85.0292 119 89.9998C119 94.9548 114.996 98.9745 110.047 98.9996ZM114.813 98.7672C117.905 97.0662 120 93.7776 120 89.9998C120 84.4769 115.523 79.9998 110 79.9998C106.222 79.9998 102.934 82.0944 101.233 85.1856C102.304 79.9436 106.941 76 112.5 76C118.851 76 124 81.1487 124 87.5C124 93.0588 120.056 97.6964 114.813 98.7672ZM129 84.9997C129 91.6365 124.382 97.1948 118.184 98.6361C122.23 96.5668 125 92.3569 125 87.5C125 80.5964 119.404 75 112.5 75C107.643 75 103.432 77.7706 101.363 81.8178C102.804 75.6187 108.363 70.9997 115 70.9997C122.732 70.9997 129 77.2677 129 84.9997ZM121.544 98.5006C126.55 96.0699 130 90.9377 130 84.9997C130 76.7154 123.284 69.9997 115 69.9997C109.062 69.9997 103.93 73.4496 101.5 78.4544C103.303 71.2975 109.783 65.9999 117.5 65.9999C126.613 65.9999 134 73.3872 134 82.4999C134 90.2172 128.702 96.6971 121.544 98.5006ZM139 80.0001C139 88.7979 133.02 96.1992 124.903 98.3613C130.868 95.5726 135 89.5188 135 82.4999C135 72.8349 127.165 64.9999 117.5 64.9999C110.482 64.9999 104.428 69.1315 101.639 75.0952C103.802 66.9791 111.203 61.0001 120 61.0001C130.493 61.0001 139 69.5067 139 80.0001ZM128.263 98.2185C137.339 95.6994 144 87.3775 144 77.4998C144 65.6257 134.374 55.9998 122.5 55.9998C112.621 55.9998 104.299 62.6623 101.781 71.739C104.925 64.8151 111.9 60.0001 120 60.0001C131.046 60.0001 140 68.9544 140 80.0001C140 88.099 135.186 95.0736 128.263 98.2185ZM122.5 54.9998C113.319 54.9998 105.423 60.4983 101.924 68.3819C104.797 58.3456 114.041 51 125 51C138.255 51 149 61.7451 149 75C149 85.9599 141.653 95.2041 131.616 98.0764C139.501 94.5782 145 86.6812 145 77.4998C145 65.0734 134.926 54.9998 122.5 54.9998Z" fill="#595959"/>
<path fill-rule="evenodd" clip-rule="evenodd" d="M0 32.4999V30.0001V27.4998L3.00937e-05 27.4626V25C3.00937e-05 11.1929 11.1929 0 25 0C38.8071 0 49.9999 11.1929 49.9999 25C49.9999 38.807 38.8071 49.9999 25 49.9999H20.0695L20 50H1H0V50V49.9998V49.9998V49.9997V49.9996V49V49V48.9998V48.9998V48.9997V48.9996V39.9998V37.5V34.9997V32.4999ZM10.0466 48.9996H1.00003V39.9762C1.01272 35.0165 5.03727 30.9998 9.99998 30.9998C14.9705 30.9998 19 35.0292 19 39.9998C19 44.9548 14.9957 48.9745 10.0466 48.9996ZM14.8135 48.7672C17.905 47.0662 20 43.7776 20 39.9998C20 34.4769 15.5228 29.9998 9.99998 29.9998C6.2224 29.9998 2.93403 32.0944 1.23297 35.1856C2.30404 29.9436 6.94147 26 12.5 26C18.8512 26 24 31.1487 24 37.5C24 43.0588 20.0559 47.6964 14.8135 48.7672ZM28.9999 34.9997C28.9999 41.6365 24.3817 47.1948 18.1835 48.6361C22.2299 46.5668 25 42.3569 25 37.5C25 30.5964 19.4035 25 12.5 25C7.64254 25 3.43222 27.7706 1.36317 31.8178C2.80387 25.6187 8.3625 20.9997 15 20.9997C22.7319 20.9997 28.9999 27.2677 28.9999 34.9997ZM21.5442 48.5006C26.5495 46.0699 29.9999 40.9377 29.9999 34.9997C29.9999 26.7154 23.2842 19.9997 15 19.9997C9.06234 19.9997 3.93048 23.4496 1.49957 28.4544C3.30345 21.2975 9.78305 15.9999 17.5 15.9999C26.6126 15.9999 33.9999 23.3872 33.9999 32.4999C33.9999 40.2172 28.7017 46.6971 21.5442 48.5006ZM38.9999 30.0001C38.9999 38.7979 33.0202 46.1992 24.9034 48.3613C30.8678 45.5726 34.9999 39.5188 34.9999 32.4999C34.9999 22.8349 27.1649 14.9999 17.5 14.9999C10.4815 14.9999 4.42809 19.1315 1.63914 25.0952C3.80172 16.9791 11.2026 11.0001 20 11.0001C30.4934 11.0001 38.9999 19.5067 38.9999 30.0001ZM28.2633 48.2185C37.3387 45.6994 43.9999 37.3775 43.9999 27.4998C43.9999 15.6257 34.3741 5.9998 22.5 5.9998C12.6213 5.9998 4.29872 12.6623 1.7805 21.739C4.92493 14.8151 11.9001 10.0001 20 10.0001C31.0456 10.0001 39.9999 18.9544 39.9999 30.0001C39.9999 38.099 35.1859 45.0736 28.2633 48.2185ZM22.5 4.9998C13.3192 4.9998 5.42278 10.4983 1.92412 18.3819C4.79715 8.34559 14.0407 1 25 1C38.2548 1 48.9999 11.7451 48.9999 25C48.9999 35.9599 41.6533 45.2041 31.616 48.0764C39.5005 44.5782 44.9999 36.6812 44.9999 27.4998C44.9999 15.0734 34.9263 4.9998 22.5 4.9998Z" fill="#595959"/>
<path fill-rule="evenodd" clip-rule="evenodd" d="M50 32.4999V30.0001V27.4998L50 27.4626V25C50 11.1929 61.1929 0 75 0C88.8071 0 99.9999 11.1929 99.9999 25C99.9999 38.807 88.8071 49.9999 75 49.9999H70.0695L70 50H51H50V50V49.9998V49.9998V49.9997V49.9996V49V49V48.9998V48.9998V48.9997V48.9996V39.9998V37.5V34.9997V32.4999ZM60.0466 48.9996H51V39.9762C51.0127 35.0165 55.0373 30.9998 60 30.9998C64.9705 30.9998 69 35.0292 69 39.9998C69 44.9548 64.9957 48.9745 60.0466 48.9996ZM64.8135 48.7672C67.905 47.0662 70 43.7776 70 39.9998C70 34.4769 65.5228 29.9998 60 29.9998C56.2224 29.9998 52.934 32.0944 51.233 35.1856C52.304 29.9436 56.9415 26 62.5 26C68.8512 26 74 31.1487 74 37.5C74 43.0588 70.0559 47.6964 64.8135 48.7672ZM78.9999 34.9997C78.9999 41.6365 74.3817 47.1948 68.1835 48.6361C72.2299 46.5668 75 42.3569 75 37.5C75 30.5964 69.4035 25 62.5 25C57.6425 25 53.4322 27.7706 51.3632 31.8178C52.8039 25.6187 58.3625 20.9997 65 20.9997C72.7319 20.9997 78.9999 27.2677 78.9999 34.9997ZM71.5442 48.5006C76.5495 46.0699 79.9999 40.9377 79.9999 34.9997C79.9999 26.7154 73.2842 19.9997 65 19.9997C59.0623 19.9997 53.9305 23.4496 51.4996 28.4544C53.3035 21.2975 59.783 15.9999 67.5 15.9999C76.6126 15.9999 83.9999 23.3872 83.9999 32.4999C83.9999 40.2172 78.7017 46.6971 71.5442 48.5006ZM88.9999 30.0001C88.9999 38.7979 83.0202 46.1992 74.9034 48.3613C80.8678 45.5726 84.9999 39.5188 84.9999 32.4999C84.9999 22.8349 77.1649 14.9999 67.5 14.9999C60.4815 14.9999 54.4281 19.1315 51.6391 25.0952C53.8017 16.9791 61.2026 11.0001 70 11.0001C80.4934 11.0001 88.9999 19.5067 88.9999 30.0001ZM78.2633 48.2185C87.3387 45.6994 93.9999 37.3775 93.9999 27.4998C93.9999 15.6257 84.3741 5.9998 72.5 5.9998C62.6213 5.9998 54.2987 12.6623 51.7805 21.739C54.9249 14.8151 61.9001 10.0001 70 10.0001C81.0456 10.0001 89.9999 18.9544 89.9999 30.0001C89.9999 38.099 85.1859 45.0736 78.2633 48.2185ZM72.5 4.9998C63.3192 4.9998 55.4228 10.4983 51.9241 18.3819C54.7972 8.34559 64.0407 1 75 1C88.2548 1 98.9999 11.7451 98.9999 25C98.9999 35.9599 91.6533 45.2041 81.616 48.0764C89.5005 44.5782 94.9999 36.6812 94.9999 27.4998C94.9999 15.0734 84.9263 4.9998 72.5 4.9998Z" fill="#595959"/>
<path fill-rule="evenodd" clip-rule="evenodd" d="M100 32.4999V30.0001V27.4998L100 27.4626V25C100 11.1929 111.193 0 125 0C138.807 0 150 11.1929 150 25C150 38.807 138.807 49.9999 125 49.9999H120.069L120 50H101H100V50V49.9998V49.9998V49.9997V49.9996V49V49V48.9998V48.9998V48.9997V48.9996V39.9998V37.5V34.9997V32.4999ZM110.047 48.9996H101V39.9762C101.013 35.0165 105.037 30.9998 110 30.9998C114.971 30.9998 119 35.0292 119 39.9998C119 44.9548 114.996 48.9745 110.047 48.9996ZM114.813 48.7672C117.905 47.0662 120 43.7776 120 39.9998C120 34.4769 115.523 29.9998 110 29.9998C106.222 29.9998 102.934 32.0944 101.233 35.1856C102.304 29.9436 106.941 26 112.5 26C118.851 26 124 31.1487 124 37.5C124 43.0588 120.056 47.6964 114.813 48.7672ZM129 34.9997C129 41.6365 124.382 47.1948 118.184 48.6361C122.23 46.5668 125 42.3569 125 37.5C125 30.5964 119.404 25 112.5 25C107.643 25 103.432 27.7706 101.363 31.8178C102.804 25.6187 108.363 20.9997 115 20.9997C122.732 20.9997 129 27.2677 129 34.9997ZM121.544 48.5006C126.55 46.0699 130 40.9377 130 34.9997C130 26.7154 123.284 19.9997 115 19.9997C109.062 19.9997 103.93 23.4496 101.5 28.4544C103.303 21.2975 109.783 15.9999 117.5 15.9999C126.613 15.9999 134 23.3872 134 32.4999C134 40.2172 128.702 46.6971 121.544 48.5006ZM139 30.0001C139 38.7979 133.02 46.1992 124.903 48.3613C130.868 45.5726 135 39.5188 135 32.4999C135 22.8349 127.165 14.9999 117.5 14.9999C110.482 14.9999 104.428 19.1315 101.639 25.0952C103.802 16.9791 111.203 11.0001 120 11.0001C130.493 11.0001 139 19.5067 139 30.0001ZM128.263 48.2185C137.339 45.6994 144 37.3775 144 27.4998C144 15.6257 134.374 5.9998 122.5 5.9998C112.621 5.9998 104.299 12.6623 101.781 21.739C104.925 14.8151 111.9 10.0001 120 10.0001C131.046 10.0001 140 18.9544 140 30.0001C140 38.099 135.186 45.0736 128.263 48.2185ZM122.5 4.9998C113.319 4.9998 105.423 10.4983 101.924 18.3819C104.797 8.34559 114.041 1 125 1C138.255 1 149 11.7451 149 25C149 35.9599 141.653 45.2041 131.616 48.0764C139.501 44.5782 145 36.6812 145 27.4998C145 15.0734 134.926 4.9998 122.5 4.9998Z" fill="#595959"/>
</svg>
